<?xml version="1.0" encoding="utf-8"?>
<!-- Generator: Adobe Illustrator 19.2.1, SVG Export Plug-In . SVG Version: 6.00 Build 0)  -->
<svg version="1.1" id="layer" xmlns="http://www.w3.org/2000/svg" xmlns:xlink="http://www.w3.org/1999/xlink" x="0px" y="0px"
	 viewBox="0 0 652 652" style="enable-background:new 0 0 652 652;" xml:space="preserve">
<style type="text/css">
	.st0{fill:#CF3417;}
	.st1{fill:#50A2DA;}
	.st2{fill:#1A65A1;}
	.st3{fill:#EF9795;}
</style>
<g>
	<path class="st0" d="M398,369c1.7,3,0.5,6.8-2.7,8.4c-3.2,1.6-7.2,0.5-8.9-2.5l-6.8-12c-1.7-3-0.5-6.8,2.7-8.4
		c3.2-1.6,7.2-0.5,8.9,2.5L398,369z"/>
	<path class="st1" d="M50,315.8H32.7v15.6H50c4.3,0,7.7-3.5,7.7-7.8C57.7,319.4,54.2,315.8,50,315.8z M32.7,304.5h16.1
		c3.5,0,6.2-2.8,6.2-6.3c0-3.6-2.7-6.5-6.2-6.5H32.7C32.7,291.7,32.7,304.5,32.7,304.5z M21,285.4c0-2.7,2.6-5,5.8-5h21.9
		c10.1,0,18.4,7.1,18.4,16.9c0,6.4-4,10-7.2,12c4.9,2.2,10,7.1,10,14.9c0,10.5-8.9,18.3-19.8,18.3H26.8c-3.2,0-5.8-2.2-5.8-5
		C21,337.7,21,285.4,21,285.4z M105.6,294.3c2.4,0.6,4.3,2.8,4.3,5.6c0,3.2-2.4,5.8-5.5,5.8c-0.5,0-1.3-0.2-3.2-0.3
		C94.9,305,90.3,311,90.3,318v21.8c0,2.8-2.6,5.1-5.7,5.1c-3.2,0-5.7-2.3-5.7-5.1v-40.5c0-2.6,2.4-4.7,5.3-4.7
		c2.9,0,5.3,2.1,5.3,4.7v2.7h0.2c2.4-4.3,5.8-8.2,12.1-8.2C102.9,293.8,104.2,294,105.6,294.3L105.6,294.3z M136.6,305.1
		c-7.8,0-14.2,6.4-14.2,14.2c0,7.8,6.4,14.3,14.2,14.3c8,0,14.2-6.4,14.2-14.3C150.8,311.5,144.5,305.1,136.6,305.1
		C136.6,305.1,136.6,305.1,136.6,305.1z M136.6,344.9c-14.7,0-26.7-10.9-26.7-25.6c0-14.6,11.9-25.5,26.7-25.5
		c14.8,0,26.7,10.9,26.7,25.5C163.2,334,151.4,344.9,136.6,344.9z M213.3,335.9c1.8,1.9,1.4,5.2-1.2,7.5c-2.4,1.9-5.7,2.2-7.4,0
		L187,324.2c-1.1-1.3-1.7-2.6-1.7-4.4s0.6-3.1,1.7-4.4l17.4-19.1c1.8-2.2,5.1-1.9,7.4,0c2.5,2.3,3,5.6,1.2,7.5l-14.3,16L213.3,335.9
		z M169.9,285.5c0-2.8,2.7-5,6-5c3.3,0,6,2.3,6,5v54.3c0,2.8-2.7,5-6,5c-3.3,0-6-2.3-6-5V285.5z M257,314.5c-2-5.8-7.3-9.6-13.5-9.6
		c-6.1,0-11.4,3.8-13.4,9.6H257L257,314.5z M263.9,324.7H230c2,5.8,7.7,9.6,13.9,9.6c4.3,0,9.5-1.6,12.5-4.3
		c1.7-1.8,4.8-1.8,7.1,0.2c2.2,1.8,2.7,5,1.1,6.8c-5.2,5-13,7.8-20.7,7.8c-14.8,0-27.3-11-27.3-25.6c0-14.6,12.1-25.5,26.9-25.5
		c14.5,0,26.5,11.3,26.5,25.5C269.9,322.1,267.2,324.7,263.9,324.7L263.9,324.7z M303.4,294.3c2.4,0.6,4.3,2.8,4.3,5.6
		c0,3.2-2.4,5.8-5.5,5.8c-0.5,0-1.3-0.2-3.2-0.3C292.7,305,288,311,288,318v21.8c0,2.8-2.6,5.1-5.7,5.1c-3.2,0-5.7-2.3-5.7-5.1
		v-40.5c0-2.6,2.4-4.7,5.3-4.7c2.9,0,5.3,2.1,5.3,4.7v2.7h0.2c2.4-4.3,5.8-8.2,12.1-8.2C300.7,293.8,302,294,303.4,294.3
		L303.4,294.3z M335.4,322.7c-0.5,0-0.9-0.2-1.2-0.6c-4.2-5.3-6.6-12-6.6-18.9c0-14.8,10.7-27.5,25-29.4c0.7-0.1,1.4,0.3,1.6,1
		c0.2,0.7,0,1.4-0.6,1.8c-11.4,7.2-18.2,19.7-18.2,33.4c0,3.6,0.5,7.2,1.4,10.7c0.2,0.7-0.1,1.4-0.7,1.8
		C335.9,322.6,335.6,322.7,335.4,322.7L335.4,322.7z"/>
	<path class="st2" d="M429.2,316.3c0-6-4.6-10.8-10.4-10.8c-5.9,0-10.5,4.8-10.5,10.8v23.6c0,2.8-2.7,5-5.9,5c-3.2,0-5.9-2.3-5.9-5
		v-54.3c0-2.8,2.7-5,5.9-5c3.2,0,5.9,2.3,5.9,5v16.6c0.1,0,0.2,0.1,0.2,0c2.2-3.9,7.1-8,13.8-8c11.2,0,18.6,8.3,18.6,20.7v25.1
		c0,2.8-2.7,5-5.9,5c-3.2,0-5.9-2.3-5.9-5V316.3L429.2,316.3z M488.1,314.5c-2-5.8-7.3-9.6-13.5-9.6c-6.1,0-11.4,3.8-13.4,9.6H488.1
		z M495,324.7h-33.9c2,5.8,7.7,9.6,13.9,9.6c4.3,0,9.5-1.6,12.5-4.3c1.7-1.8,4.9-1.8,7.1,0.2c2.2,1.8,2.7,5,1.1,6.8
		c-5.2,5-13,7.8-20.7,7.8c-14.8,0-27.3-11-27.3-25.6c0-14.6,12.1-25.5,26.9-25.5c14.5,0,26.5,11.3,26.5,25.5
		C501,322.1,498.3,324.7,495,324.7z M548,330.8c2.2,2.3,2.6,5.7,0.2,7.8c-4.5,4-10.3,6.3-16.7,6.3c-14.5,0-26.1-11-26.1-25.6
		c0-14.6,11.6-25.5,26.1-25.5c6.4,0,12.2,2.2,16.7,6.3c2.4,2.2,2.1,5.3-0.2,7.8c-2.1,2.3-5.5,2.6-7.4,0.7c-2.5-2.2-5.7-3.3-9-3.3
		c-7.8,0-13.9,6.4-13.9,14.2s6.2,14.3,13.9,14.3c3.4,0,6.6-1.3,9-3.4C542.5,328.2,545.9,328.6,548,330.8L548,330.8z M602.1,335.9
		c1.8,1.9,1.4,5.2-1.2,7.5c-2.4,1.9-5.7,2.2-7.4,0l-17.6-19.2c-1.1-1.3-1.7-2.6-1.7-4.4s0.6-3.1,1.7-4.4l17.4-19.1
		c1.8-2.2,5.1-1.9,7.4,0c2.5,2.3,3,5.6,1.2,7.5l-14.3,16L602.1,335.9z M558.8,285.5c0-2.8,2.7-5,6-5c3.3,0,6,2.3,6,5v54.3
		c0,2.8-2.7,5-6,5c-3.3,0-6-2.3-6-5C558.8,339.8,558.8,285.5,558.8,285.5z M485.4,387.5c1.3,0,2.4-1.1,2.4-2.5
		c0-1.3-1.1-2.4-2.4-2.4c-1.3,0-2.4,1.1-2.4,2.4C483.1,386.4,484.1,387.5,485.4,387.5L485.4,387.5z M483,388.4c0,0.5-0.4,0.9-1,0.9
		c-0.5,0-1-0.4-1-0.9v-9.3c0-0.5,0.5-0.9,1-0.9c0.5,0,1,0.4,1,0.9v2.9h0c0.6-0.8,1.4-1.4,2.7-1.4c2.3,0,4.1,1.9,4.1,4.4
		c0,2.5-1.8,4.4-4.1,4.4c-1.2,0-2.2-0.6-2.8-1.6l0,0L483,388.4L483,388.4z M492.2,390.2l0.9-1.9l-3.2-6.5c-0.2-0.4,0-1,0.6-1.2
		c0.5-0.2,1.1-0.1,1.3,0.4l2.4,4.9l2.4-4.9c0.2-0.4,0.8-0.6,1.4-0.4c0.5,0.2,0.8,0.8,0.6,1.2l-4.6,9.3c-0.2,0.4-0.8,0.6-1.4,0.4
		C492.3,391.2,492,390.7,492.2,390.2L492.2,390.2z M507.7,368.9c0-1,0.9-1.8,2-1.8h11.8c1,0,1.7,0.9,1.7,2c0,1.1-0.8,2-1.7,2h-9.7v5
		h7.8c0.9,0,1.7,0.9,1.7,2c0,1.1-0.8,2-1.7,2h-7.8v7.5c0,1-0.9,1.8-2,1.8c-1.1,0-2-0.8-2-1.8V368.9L507.7,368.9z M527.7,368.9
		c0-1,1-1.7,2.2-1.7c1.2,0,2.2,0.8,2.2,1.7v18.7c0,1-1,1.7-2.2,1.7c-1.2,0-2.2-0.8-2.2-1.7L527.7,368.9L527.7,368.9z M538.8,369
		c0-1,1.1-1.9,2.5-1.9c1.1,0,2,0.5,2.4,1.2l8.5,13.5h0.1l0-13c0-1,1-1.7,2.1-1.7c1.2,0,2.1,0.8,2.1,1.7v18.6c0,1-1.1,1.9-2.5,1.9
		c-1.1,0-2-0.5-2.4-1.2l-8.5-13.6H543l0,13c0,1-1,1.7-2.1,1.7s-2.1-0.8-2.1-1.7L538.8,369L538.8,369z M573,371.1h-5.5v7h5.5
		c1.9,0,3.6-1.6,3.6-3.5C576.6,372.7,575,371.1,573,371.1z M563.2,368.9c0-1,1-1.8,2.1-1.8h7.8c4.4,0,7.9,3.2,7.9,7.5
		c0,3.2-1.9,5.7-4.5,6.8l2.6,5.1c0.5,0.9,0,2-1.1,2.6c-1,0.5-2.3,0.1-2.7-0.7l-3.2-6.3h-4.6v5.5c0,1-1,1.8-2.1,1.8s-2.1-0.8-2.1-1.8
		V368.9z M595.6,373.2h-0.2l-2.9,8h6.1L595.6,373.2L595.6,373.2z M605.4,386.8c0.3,0.9-0.2,1.9-1.3,2.4c-1.1,0.3-2.3,0-2.7-0.9
		l-1.4-3.2h-9l-1.4,3.2c-0.4,0.9-1.6,1.2-2.7,0.9c-1.1-0.4-1.6-1.5-1.3-2.4l7.3-18.3c0.9-1.9,4.3-1.9,5.1,0L605.4,386.8L605.4,386.8
		z M355.7,351.6c-27.7,0-50.3-22.4-50.3-50c0-27.6,22.6-50,50.3-50c14,0,27.4,5.8,37,16.1c2.2,2.4,2.1,6.2-0.3,8.5c0,0,0,0,0,0
		c-2.5,2.2-6.3,2.1-8.5-0.3c-7.3-7.8-17.4-12.2-28.1-12.2c-21.1,0-38.2,17-38.2,38c0,20.9,17.1,38,38.2,38c9.8,0,19.2-3.7,26.3-10.4
		c2.4-2.3,6.2-2.2,8.5,0.2c2.3,2.4,2.2,6.2-0.2,8.5c0,0,0,0,0,0C381,346.7,368.6,351.6,355.7,351.6L355.7,351.6z"/>
	<path class="st3" d="M396.3,369.5c0.5,0.7,0.1,1.5-0.8,1.9c-0.9,0.4-2.1,0.1-2.6-0.6l-2.8-3.8c-0.5-0.7-0.2-1.5,0.8-1.9
		c0.9-0.4,2.1-0.1,2.6,0.6L396.3,369.5L396.3,369.5z"/>
	<path class="st0" d="M380.1,347.4c1.2-0.5,2.5-0.3,3,0.5c0.5,0.8-0.1,1.9-1.3,2.5l-6.5,3.1c-1.2,0.5-2.5,0.3-3-0.5
		c-0.5-0.8,0.1-1.9,1.3-2.5L380.1,347.4L380.1,347.4z"/>
	<path class="st2" d="M614.2,266.5c0.8,0,1.4-0.7,1.4-1.6c0-0.8-0.5-1.5-1.4-1.5h-2.7v3.1H614.2z M615.4,272.7l-1.8-4.2h-2.1v4.2
		h-1.8v-11.4h4.5c1.8,0,3.3,1.6,3.3,3.6c0,1.6-0.8,2.8-2,3.4l2,4.4H615.4L615.4,272.7z M613.3,259.3c-3.8,0-6.8,3.5-6.8,7.8
		c0,4.4,3,7.9,6.8,7.9c3.8,0,6.8-3.5,6.8-7.9C620,262.8,617,259.3,613.3,259.3z M613.3,276c-4.3,0-7.8-4-7.8-8.9
		c0-4.8,3.5-8.9,7.8-8.9c4.2,0,7.7,4,7.7,8.9C621,272,617.5,276,613.3,276z"/>
</g>
</svg>
