<?xml version="1.0" encoding="UTF-8" standalone="no"?>
<!-- Created with Inkscape (http://www.inkscape.org/) -->

<svg
   xmlns:dc="http://purl.org/dc/elements/1.1/"
   xmlns:cc="http://creativecommons.org/ns#"
   xmlns:rdf="http://www.w3.org/1999/02/22-rdf-syntax-ns#"
   xmlns:svg="http://www.w3.org/2000/svg"
   xmlns="http://www.w3.org/2000/svg"
   version="1.1"
   width="147.16899"
   height="80.852127"
   id="svg2985"
   xml:space="preserve"><metadata
     id="metadata2991"><rdf:RDF><cc:Work
         rdf:about=""><dc:format>image/svg+xml</dc:format><dc:type
           rdf:resource="http://purl.org/dc/dcmitype/StillImage" /><dc:title></dc:title></cc:Work></rdf:RDF></metadata><defs
     id="defs2989" /><g
     transform="matrix(1.25,0,0,-1.25,-0.70432709,81.94625)"
     id="g2993"><g
       transform="translate(27.789,56.345)"
       id="g2995"><path
         d="m 0,0 -2.398,2.398 0,0.016 3.032,-1.78 0.709,0.709 -1.721,3.052 0.016,0 L 2.016,2.016 2.705,2.706 -0.138,5.549 -1.363,4.324 0.114,1.95 0.106,1.942 -2.284,3.403 -3.533,2.154 -0.689,-0.689 0,0"
         id="path2997"
         style="fill:#231f20;fill-opacity:1;fill-rule:evenodd;stroke:none" /></g><g
       transform="translate(34.31,60.757)"
       id="g2999"><path
         d="m 0,0 -0.305,0.718 -1.794,-0.762 -0.333,0.785 1.651,0.7 L -1.086,2.159 -2.737,1.458 -3.061,2.222 -1.267,2.984 -1.571,3.701 -4.391,2.505 -2.82,-1.197 0,0"
         id="path3001"
         style="fill:#231f20;fill-opacity:1;fill-rule:nonzero;stroke:none" /></g><g
       transform="translate(36.164,61.158)"
       id="g3003"><path
         d="M 0,0 -0.355,3.373 -0.345,3.385 0.892,0.094 1.889,0.198 2.472,3.653 2.484,3.643 2.836,0.298 3.805,0.4 3.385,4.399 1.662,4.218 1.316,1.443 1.304,1.442 0.366,4.082 -1.39,3.897 -0.969,-0.102 0,0"
         id="path3005"
         style="fill:#231f20;fill-opacity:1;fill-rule:nonzero;stroke:none" /></g><g
       transform="translate(42.914,61.012)"
       id="g3007"><path
         d="M 0,0 C 0.038,-0.01 1.467,-0.446 1.75,0.688 1.889,1.245 1.55,1.68 1.048,1.879 L 1.051,1.89 C 1.509,1.862 1.987,2.053 2.107,2.534 2.278,3.22 1.744,3.703 1.011,3.892 L -0.859,4.358 -1.832,0.457 0,0 z M -0.562,0.944 -0.352,1.787 0.356,1.61 C 0.595,1.533 0.695,1.29 0.641,1.074 0.58,0.831 0.34,0.719 0.07,0.786 L -0.562,0.944 z M 0.033,3.332 0.622,3.185 C 0.876,3.122 1.026,2.918 0.971,2.696 0.897,2.399 0.679,2.333 0.388,2.406 l -0.553,0.132 0.198,0.794"
         id="path3009"
         style="fill:#231f20;fill-opacity:1;fill-rule:evenodd;stroke:none" /></g><g
       transform="translate(47.842,58.726)"
       id="g3011"><path
         d="M 0,0 0.425,0.654 -1.21,1.715 -0.746,2.43 0.758,1.454 1.183,2.107 -0.322,3.084 0.131,3.78 1.765,2.719 2.19,3.372 -0.379,5.041 -2.569,1.668 0,0"
         id="path3013"
         style="fill:#231f20;fill-opacity:1;fill-rule:nonzero;stroke:none" /></g><g
       transform="translate(51.062,58.744)"
       id="g3015"><path
         d="M 0,0 0.718,0.582 0.992,0.244 C 1.216,-0.033 1.395,-0.333 1.074,-0.592 0.754,-0.852 0.498,-0.615 0.273,-0.338 L 0,0 z m -0.606,-0.491 0.263,-0.324 C 0.015,-1.257 -0.127,-1.4 -0.476,-1.74 -0.679,-1.94 -0.883,-2.149 -1.061,-2.371 l 0.761,-0.94 c 0.191,0.277 0.399,0.525 0.641,0.757 0.439,0.448 0.637,0.78 0.201,1.344 l 0.017,0.015 C 0.965,-1.591 1.503,-1.75 1.97,-1.371 2.633,-0.835 2.222,-0.036 1.794,0.492 l -1.171,1.446 -3.124,-2.53 0.7,-0.866 1.195,0.967"
         id="path3017"
         style="fill:#231f20;fill-opacity:1;fill-rule:evenodd;stroke:none" /></g><g
       transform="translate(34.793,55.481)"
       id="g3019"><path
         d="m 0,0 c -0.251,0.15 -0.551,0.2 -0.852,0.2 -0.702,-0.3 -1.353,-0.551 -1.955,-0.952 -1.704,-1.353 -2.355,-3.558 -2.656,-5.613 -0.1,-1.053 0.351,-2.005 0.551,-2.957 0.251,-1.604 1.103,-2.857 2.105,-4.11 l 0.301,-0.1 c 0.05,0.1 -0.05,0.25 -0.05,0.401 -0.952,1.854 -2.105,3.809 -1.804,6.164 0.301,0.501 0.952,0.952 0.802,1.604 l -0.1,0 c -0.301,-0.501 -0.552,-1.103 -1.003,-1.353 0.451,0.701 0.501,1.654 0.652,2.506 0.15,0.25 0.401,-0.1 0.501,-0.15 l 0.15,0.2 c 0.1,0.05 0.251,0.1 0.301,0 0.1,-0.651 0.1,-1.303 -0.05,-1.855 0.2,0.151 0.3,0.402 0.401,0.602 0.25,0.551 -0.05,1.103 0,1.654 0.351,0.301 0.451,0.752 0.701,1.103 0.902,0.35 0.351,-0.953 0.802,-1.203 0.201,0.3 0.251,0.651 0.451,0.952 -0.3,0.251 -0.551,0.652 -0.852,0.852 -0.551,0.401 -0.701,-0.501 -1.152,-0.551 -0.652,-0.151 -0.602,-0.852 -0.953,-1.203 -0.25,0.2 -0.2,0.551 -0.15,0.852 0.05,0.451 0.551,0.501 0.852,0.752 0.501,0.2 0.601,0.752 0.802,1.152 0.2,0.051 0.451,0 0.551,-0.2 0.752,0.1 0.551,-0.802 1.103,-1.053 C 0.1,-2.356 0.301,-2.907 0.852,-3.108 1.253,-2.606 0.401,-2.406 0.351,-1.905 -0.05,-1.303 0.551,-0.501 0,0 z m -0.301,-3.007 c -0.25,-0.151 -0.4,-0.552 -0.551,-0.852 0.05,-0.101 0.151,-0.05 0.251,-0.05 0.401,0.15 0.35,0.601 0.3,0.902 z M 0.752,-3.408 C -0.2,-3.158 0.05,-4.36 -0.351,-4.811 c -0.15,-0.101 -0.3,-0.251 -0.451,-0.101 -0.1,0.201 0,0.401 -0.05,0.501 -0.05,-0.25 -0.301,-0.25 -0.451,-0.351 0.05,-0.2 0.301,-0.1 0.401,-0.2 0.451,-0.902 -0.201,-1.804 -0.652,-2.556 l -0.05,-0.652 c 0.301,-1.152 1.003,-2.105 1.353,-3.157 -0.05,0.952 -0.701,1.654 -0.701,2.606 -0.201,1.003 0.802,1.203 1.052,1.955 0.101,0.351 -0.1,0.952 0.401,1.002 0.101,0.251 0.05,0.652 0.05,0.852 -0.25,-0.301 -0.852,-0.501 -0.601,-1.052 -0.15,-0.602 -0.251,-1.604 -1.053,-1.704 -0.2,0.05 -0.15,0.25 -0.15,0.4 0.451,0.301 0.752,0.953 0.652,1.554 0.05,0.752 1.002,1.103 0.902,1.955 0.05,0.251 0.351,0.251 0.451,0.351 z m -2.656,-1.955 c 0.05,0.301 0.1,0.702 -0.201,0.852 0.15,-0.651 -0.25,-1.102 -0.351,-1.604 0.301,0.1 0.501,0.451 0.552,0.752 z m 0.551,-0.551 c 0.05,0.05 0.1,0.25 -0.05,0.25 -0.251,-0.4 -0.451,-0.802 -0.802,-1.102 -0.251,-0.351 -0.15,-0.902 -0.301,-1.303 0.1,-0.101 0.055,-0.254 0.201,-0.4 0.2,-0.201 0.35,-0.553 0.501,-0.853 0.1,-0.902 0.752,-1.554 0.852,-2.456 0.05,-0.351 -0.05,-0.752 0.2,-1.053 0.101,0.301 0.201,0.702 0.101,1.053 -0.101,0.351 -0.201,0.752 -0.351,1.103 -0.101,0.601 -0.346,1.345 -0.776,1.868 -0.337,0.412 -0.227,0.688 -0.327,1.139 0.15,0.601 0.551,1.152 0.752,1.754 z m -1.854,-2.857 c -0.201,0.601 0.15,1.454 -0.451,1.854 -0.251,-0.3 -0.201,-0.852 -0.201,-1.253 0,-1.503 0.802,-2.706 1.303,-3.959 0.201,-0.301 0.251,-0.802 0.551,-1.052 0.07,0.077 0.251,0.802 -0.1,1.152 -0.401,1.103 -1.102,2.055 -1.102,3.258 z m 0.551,0.551 c -0.034,0.315 0.05,0.552 -0.201,0.652 -0.15,-0.602 -0.139,-1.33 0.05,-1.955 0.213,-0.699 0.802,-2.054 1.304,-3.057 0.15,-0.401 0.1,-0.952 0.05,-1.353 0.1,0.2 0.25,0.401 0.3,0.601 -0.15,0.802 -0.2,1.755 -0.601,2.506 -0.301,0.902 -0.778,1.465 -0.902,2.606 z m 4.21,0 C 1.403,-8.019 1.253,-7.769 1.053,-7.618 0.602,-8.37 0.301,-9.272 0.602,-10.124 c 0.451,0.1 0.25,0.652 0.451,0.902 0.05,0.451 0.601,0.551 0.501,1.002 z m -1.303,-1.904 c -0.652,0.702 -0.201,1.654 0,2.355 L -0.451,-8.32 c -0.2,-0.751 0.05,-1.554 0.601,-2.055 0.151,0 0.101,0.151 0.101,0.251 z m 2.506,-0.301 C 2.606,-9.823 2.706,-8.971 2.005,-8.821 1.754,-9.122 1.388,-9.139 1.488,-9.54 c 0.115,-0.104 0.216,-0.735 0.567,-0.584 0.301,-0.05 0.351,-0.351 0.451,-0.551 0.151,-0.101 0.251,0.1 0.251,0.25 z m -0.953,-2.406 c -0.501,-0.05 -0.451,0.502 -0.651,0.802 -0.15,-0.401 -0.05,-0.802 0,-1.202 0.15,-0.051 0.25,0.15 0.451,0.15 0.351,-0.1 0.1,-0.551 0.15,-0.752 0.1,0.05 0.151,0.151 0.201,0.251 0.702,0.3 0.351,-0.652 0.702,-0.902 0.3,0.05 0.15,0.451 0.4,0.601 0.101,0.1 0.301,0.05 0.301,0.201 -0.05,0.3 -0.251,0.701 -0.601,0.451 -0.401,0 -0.502,0.501 -0.953,0.4 z m -0.351,-2.054 c -0.15,0.25 -0.3,0.651 -0.651,0.801 -0.15,-0.15 -0.351,-0.25 -0.401,-0.501 0.15,-0.1 0.15,-0.351 0.401,-0.401 0.201,0 0.551,-0.2 0.651,0.101 z m 1.626,2.608 c 0.064,0.096 -0.206,0.98 -0.102,1.084 0.045,-0.086 0.071,-0.12 0.074,-0.118 0.006,0.003 -0.048,0.118 -0.074,0.118 -0.161,0.309 -0.552,-0.288 -0.958,-0.034 -0.093,0.185 -0.36,0.023 -0.536,-0.011 -0.052,-0.158 0.006,-0.297 0.077,-0.434 l 0.051,-0.096 0.281,0.159 c 0.196,0.176 0.296,0 0.296,-0.159 0,-0.318 -0.101,-0.341 0.096,-0.541 0.028,0.047 0.369,0.341 0.413,0.445 0,0 0.25,-0.612 0.382,-0.413 z m 10.052,9.52 -0.902,1.304 C 11.477,-0.501 10.625,0.352 9.573,0.752 9.186,0.9 8.688,1.209 8.219,0.752 7.32,-0.125 8.019,-1.103 7.718,-2.005 7.368,-2.606 6.766,-3.108 6.014,-3.057 5.664,-2.857 5.413,-2.506 4.962,-2.606 4.661,-2.957 4.11,-2.556 3.909,-3.057 3.709,-3.158 3.508,-3.108 3.358,-2.957 3.107,-2.707 2.957,-3.108 2.807,-3.208 2.406,-3.559 1.905,-2.957 1.504,-3.358 0.752,-4.26 1.153,-5.764 1.403,-6.866 1.654,-7.769 2.506,-8.32 3.208,-8.871 3.358,-9.122 3.007,-9.272 3.107,-9.623 c 0.151,-0.601 0.351,-1.353 1.103,-1.403 -0.15,0.802 -0.451,1.955 0.301,2.556 0.15,0.05 0.25,0.1 0.351,-0.05 0.05,-0.451 -0.401,-0.802 -0.301,-1.303 0.1,-0.552 0,-1.354 0.752,-1.404 0.15,0.201 0.1,0.451 0.3,0.602 0.201,0.05 0.301,-0.05 0.401,-0.201 0.201,-0.2 0.251,0.101 0.351,0.251 0.101,0.05 0.301,0.1 0.401,-0.05 0.151,-0.151 0.451,-0.151 0.552,0.1 -0.201,0.952 -0.452,1.905 -1.504,2.205 -0.301,0.1 -0.1,0.501 0.05,0.551 -0.351,0.401 -0.551,-0.3 -0.902,0 -0.151,0.351 0.401,0.351 0.451,0.652 0.351,0.15 0.701,-0.301 0.902,0.2 0.151,0.051 0.201,-0.1 0.201,-0.2 -0.05,-0.301 -0.151,-0.551 -0.451,-0.702 0.2,-0.25 0.551,-0.2 0.701,-0.501 0.501,-0.15 0.602,-0.802 0.952,-1.152 -0.05,-0.151 0,-0.351 0.151,-0.351 l 0.25,0.601 c 0.301,0.351 0.251,0.852 0.652,1.052 0.1,0.051 0.15,-0.15 0.2,-0.2 L 8.42,-9.723 c 0,-0.1 -0.1,-0.301 0.05,-0.351 0.1,0.351 0.451,0.652 0.351,1.052 0.2,0.251 0.451,0.552 0.401,0.953 -0.501,0.15 -0.852,0.551 -1.053,1.052 -0.1,0.351 -0.05,0.752 -0.25,1.053 -0.351,-0.051 -0.702,0.05 -0.952,0.25 -0.251,0.351 -0.501,0.903 -1.053,0.952 -0.05,0.051 -0.1,0.201 0.05,0.251 0.502,0.1 1.103,0.151 1.554,0.501 0.802,0.702 0.902,1.805 0.802,2.857 -0.05,0.652 0.701,0.251 0.852,0.702 0.2,0.1 0.351,0.1 0.501,-0.1 0.301,-0.953 1.754,-0.451 2.155,-1.404 0.05,-0.3 -0.401,-0.15 -0.501,-0.2 0.1,-0.351 0.551,-0.552 0.501,-1.003 -0.1,-0.15 -0.25,-0.3 -0.451,-0.25 -0.551,0.401 -0.702,1.052 -1.002,1.604 l -0.151,0 c -0.2,-0.652 0.502,-1.003 0.752,-1.554 l -0.1,-0.201 c -0.201,-0.1 -0.401,0.051 -0.551,0.151 -0.301,0.601 -1.003,1.102 -0.752,1.854 -0.05,0.151 -0.151,0.251 -0.301,0.251 -0.251,0 -0.351,-0.201 -0.301,-0.451 0.502,-0.752 0.652,-1.704 1.504,-2.155 0.251,-0.201 0.15,-0.602 0.05,-0.802 -0.1,-0.551 0.201,-1.003 0.551,-1.304 0.101,0 0.251,-0.049 0.201,0.151 -0.301,0.501 -0.451,1.002 -0.401,1.604 0,0.25 0.301,0.501 0.451,0.401 -0.1,-0.602 0.05,-1.153 0.2,-1.704 0,-0.101 0.151,-0.201 0.251,-0.101 -0.1,0.451 -0.301,0.953 -0.1,1.404 0.15,0.1 0.3,0.3 0.501,0.25 -0.201,-0.401 -0.201,-0.952 -0.201,-1.453 0.051,-0.301 0.301,-0.552 0.602,-0.601 0.551,0.601 -0.351,1.253 0,2.054 0.15,0.151 0.05,0.451 0.351,0.552 0.15,0 0.2,-0.151 0.2,-0.301 -0.3,-0.451 -0.3,-1.253 0,-1.704 0.301,-0.201 0.351,-0.902 0.752,-0.601 0.2,1.152 -0.201,2.355 -0.752,3.307 z m -3.207,-1.603 0,0.2 -0.953,0.952 C 9.021,-3.809 9.523,-4.16 9.924,-4.36 z M 9.272,-4.762 8.721,-4.26 c 0,0.1 -0.151,0.351 -0.251,0.2 -0.15,-0.351 0.301,-0.551 0.501,-0.802 0.151,-0.1 0.251,0 0.301,0.1 z m -0.601,-0.5 c -0.401,0.15 -0.452,0.601 -0.802,0.751 -0.05,-0.15 0.05,-0.351 0.2,-0.451 0.201,-0.2 0.401,-0.601 0.652,-0.601 0.1,0.1 0.05,0.25 -0.05,0.301 z M 8.019,-5.613 c -0.301,0.25 -0.501,0.802 -0.902,0.651 0.05,-0.451 0.551,-0.501 0.752,-0.752 0.1,-0.05 0.2,0.05 0.15,0.101 z m 2.807,-1.053 c -0.401,0.401 -0.752,1.002 -0.902,1.604 -0.151,-0.2 -0.101,-0.602 0.05,-0.852 0.05,-0.451 0.501,-0.552 0.852,-0.752 z m -1.053,-0.05 -0.25,0.401 c -0.05,-0.201 0.1,-0.451 0.25,-0.401 z m 1.354,-3.308 c 0.501,1.153 0.551,2.456 0.801,3.709 l -0.3,-0.351 c -0.752,-0.952 -0.652,-2.305 -1.053,-3.458 -0.15,-0.902 -0.802,-1.704 -1.403,-2.456 -0.05,-0.15 -0.251,-0.501 0.05,-0.551 0.752,0.952 1.203,2.055 1.905,3.107 z m -1.604,2.606 c -0.351,0.301 -0.502,0.752 -0.752,1.053 l -0.05,-0.201 c 0,-0.401 0.2,-0.651 0.501,-0.852 0.1,-0.05 0.251,-0.1 0.301,0 z m 4.36,0.301 c -0.1,0.351 -0.451,0.501 -0.702,0.601 0,-1.152 -0.25,-2.155 -0.651,-3.157 -0.401,-1.453 -1.353,-2.857 -2.205,-4.16 l -0.051,-0.251 c 0.502,0.151 0.702,0.602 1.153,0.853 1.153,1.854 2.306,3.859 2.456,6.114 z M 12.58,-7.919 c 0.1,0.301 0.2,0.852 -0.1,1.002 -0.451,-0.651 -0.602,-1.503 -0.652,-2.355 l -0.401,-1.052 c -0.501,-0.502 -0.601,-1.204 -1.052,-1.755 -0.151,-0.25 -0.401,-0.3 -0.451,-0.551 -0.101,-0.301 -0.401,-0.601 -0.351,-0.852 0.15,0.05 0.05,-0.1 0.15,-0.15 0.301,0.05 0.301,0.401 0.551,0.451 0.903,1.704 2.055,3.307 2.306,5.262 z m -2.005,0.501 c -0.451,-0.2 -0.501,-0.852 -0.702,-1.303 -0.05,-0.651 0.151,-1.503 -0.35,-1.954 l 0,1.854 -0.101,0.05 c -0.3,-0.401 -0.25,-0.952 -0.651,-1.353 -0.401,-0.601 -0.201,-1.504 0.15,-2.105 0.351,0.2 0.602,0.652 0.702,1.002 0.451,0.451 0.501,1.003 0.651,1.554 0.301,0.651 0.351,1.453 0.301,2.255 z m -2.606,-4.41 c -0.1,0.251 -0.351,0.902 -0.702,0.401 -0.651,-0.251 -1.403,-0.301 -2.055,-0.552 0,-0.4 0.201,-0.701 0.502,-0.952 0,-0.15 0.05,-0.2 0.2,-0.2 0.351,0 0.251,0.451 0.351,0.651 0.351,0.401 0.351,-0.451 0.802,-0.3 0.1,0.3 -0.1,0.751 0.301,0.902 0.2,-0.101 0.25,-0.401 0.4,-0.501 0.201,0.1 0.151,0.35 0.201,0.551 z m 0.702,-1.654 c -0.151,0.2 -0.151,0.501 -0.401,0.501 -0.301,-0.501 -0.902,0.05 -1.153,-0.451 -0.301,-0.351 -1.103,-0.351 -1.003,-0.852 l 1.003,0 c 0.201,-0.1 0.451,-0.15 0.551,0.1 0.201,0.301 0.401,-0.1 0.652,0 0.05,0.251 0.25,0.451 0.351,0.702 z m -0.652,-1.604 c -0.451,-0.15 -0.701,0.301 -1.102,0.351 -0.101,-0.1 -0.101,-0.251 -0.101,-0.351 -0.05,-0.251 -1.133,-0.627 -1.033,-0.828 0.551,0.151 2.086,0.327 2.436,0.728 l -0.2,0.1 z M 2.328,0.686 c 0,0 0.831,0.137 0.98,-0.234 0.666,-1.667 -1.504,-1.805 -1.454,-3.108 0.401,-0.051 0.953,-0.201 1.203,0.25 l 0.702,-0.25 c 0.351,0.05 0.401,0.701 0.852,0.451 0.2,0.15 0.451,0.2 0.652,0.1 0.25,0.1 0.2,0.451 0.1,0.652 -0.351,-0.201 -0.852,-0.251 -1.303,-0.351 -0.101,0.05 -0.351,0.25 -0.201,0.401 0.552,-0.201 0.552,0.651 1.153,0.35 0.301,0.151 0.401,0.552 0.351,0.903 C 5.274,0.7 5.118,1.417 4.13,1.63 4.046,1.648 3.97,1.652 3.833,1.58 3.833,1.559 3.801,1.487 3.903,1.46 4.036,1.424 4.062,1.271 3.949,1.189 3.752,1.045 3.42,1.147 3.327,1.254 3.279,1.309 3.211,1.345 3.074,1.342 2.833,1.312 2.419,1.226 2.328,0.686 z m -2.857,-16.045 c -0.039,0.153 0.099,0.385 0.625,0.978 0.631,0.712 0.704,1.974 0.823,2.689 0.146,0.878 0.696,1.487 0.696,1.487 0,0 -0.934,-0.298 -1.377,-1.627 -0.333,-0.998 -0.628,-2.954 -1.495,-3.032 -0.069,-0.006 -0.121,-0.019 -0.16,-0.038 -0.504,0.124 -0.894,0.295 -1.246,0.669 0,0 -0.28,0.293 -0.374,0.352 -1.762,2.012 -2.927,4.75 -3.028,7.569 0.452,2.858 1.612,6.001 4.599,6.962 0.615,0.112 1.179,0.351 1.793,0.045 0.735,-0.526 0.63,-1.65 0.675,-2.435 0.021,-0.037 0.194,-0.155 0.194,-0.155 0.591,0.493 1.221,1.031 1.66,1.758 C 2.845,0.025 2.637,0.204 2.45,0.251 2.301,0.251 2.143,0.175 1.99,0.162 1.809,0.148 1.654,0.213 1.654,0.498 1.601,0.975 2.076,1.594 2.263,1.638 3.129,1.747 3.697,2.52 4.633,2 5.142,1.796 5.604,1.438 5.811,0.92 c 0.354,-1.01 0.194,-2.076 0.303,-3.117 0.042,-0.165 0.159,-0.208 0.352,-0.208 0.696,0.211 0.726,0.807 0.688,1.5 -0.034,0.616 -0.155,1.44 0.382,1.896 0.547,0.448 1.12,0.886 2.111,0.507 1.477,-0.565 2.572,-1.968 3.475,-3.122 0.705,-1.007 1.21,-2.07 1.463,-3.28 0.201,-2.266 -0.302,-4.282 -1.157,-6.143 -0.654,-1.509 -1.514,-2.772 -2.827,-3.731 -0.307,-0.154 -0.672,-0.213 -1.006,-0.102 0,0 -0.4,0.391 -0.577,0.434 10e-4,-0.116 0.421,-0.533 0.449,-0.618 0.12,-0.179 0.208,-0.375 0.152,-0.599 l -0.115,-0.115 c -0.155,-0.132 -0.264,-0.081 -0.363,-0.074 -0.088,0.007 -0.216,0.007 -0.413,-0.014 -1.22,-0.126 -1.433,-0.169 -2.205,-0.323 -0.498,-0.049 -1.099,-0.149 -1.597,-0.299 -0.275,-0.002 -0.312,0.303 -0.214,0.467 0.032,0.32 0.253,0.455 0.456,0.572 l 0.152,0.089 c 0.146,0.093 0.26,0.199 0.293,0.38 0.049,0.925 -0.436,1.556 -0.744,2.37 0,0 -0.518,1.599 -1.308,1.219 -0.095,-0.253 0.091,-0.921 0.091,-0.921 -0.039,-0.83 0.139,-1.528 0.458,-2.313 0,-0.094 0.059,-0.627 -0.055,-0.741 -0.35,-0.178 -0.553,-0.202 -0.871,-0.259 -0.113,-0.016 -0.248,-0.024 -0.991,-0.103 -1.457,-0.327 -2.743,-0.06 -2.722,0.369 z m 6.092,9.946 c -0.25,-0.501 -0.902,0 -1.253,-0.401 -0.25,-0.05 -0.401,0.05 -0.501,0.201 l 0,0.2 c 0.301,0 0.602,0.05 0.802,0.251 0.2,0.05 0.451,-0.251 0.702,0 0.15,0.1 0.1,0.351 0.3,0.451 0.301,-0.151 0.051,-0.502 -0.05,-0.702 z m 1.704,-2.305 c -0.05,-0.401 0.652,-0.301 0.451,-0.702 -0.3,-0.15 -0.501,0.15 -0.651,0.351 -0.15,0.3 -0.251,0.801 -0.15,1.052 0.551,0.05 0.15,-0.451 0.35,-0.701 z M 8.42,-7.769 c 0,-0.1 0.15,-0.3 -0.05,-0.35 -0.251,-0.101 -0.551,0.05 -0.752,0.25 -0.3,0.401 -0.451,1.003 -0.2,1.554 0.1,0.15 0.25,0 0.3,-0.1 0.201,-0.351 -0.1,-0.853 0.251,-1.153 L 8.42,-7.769 z M 6.215,-6.415 C 6.114,-6.566 6.014,-6.816 5.764,-6.766 4.912,-6.516 5.012,-7.769 4.16,-7.618 c -0.301,0.1 -0.802,-0.151 -0.902,0.35 0.1,0.251 0.551,0.101 0.752,0.251 0.15,-0.05 0.35,-0.1 0.501,-0.1 0.25,0.2 -0.1,0.451 0.15,0.601 0.301,-0.15 0.551,0.151 0.752,0.301 0.301,-0.1 0.601,-0.05 0.752,0.251 0.15,0 0.1,-0.301 0.05,-0.451"
         id="path3021"
         style="fill:#231f20;fill-opacity:1;fill-rule:nonzero;stroke:none" /></g><g
       transform="translate(2.5669,2.1565)"
       id="g3023"><path
         d="m 0,0 c -0.0112,-0.3844 -0.0112,-1.2921 1.175,-1.2811 0.6629,0 1.2476,0.2728 1.2476,1.1194 0,1.2755 -1.8044,1.1475 -1.8044,2.033 0,0.4345 0.3118,0.5903 0.6182,0.5903 0.4845,0 0.6237,-0.2896 0.6182,-0.7296 l 0.5346,0 c 0.0334,0.8187 -0.3786,1.1752 -1.1138,1.1752 -0.6739,0 -1.1807,-0.3785 -1.1807,-1.0917 0,-1.2085 1.8044,-1.1084 1.8044,-1.9993 0,-0.479 -0.3119,-0.6517 -0.7184,-0.6517 -0.3287,0 -0.6739,0.1727 -0.6739,0.7185 L 0.5068,0 0,0"
         id="path3025"
         style="fill:#231f20;fill-opacity:1;fill-rule:nonzero;stroke:none" /></g><g
       transform="translate(7.8386,0.95906)"
       id="g3027"><path
         d="m 0,0 0,0.4455 -1.5928,0 0,1.3922 1.4481,0 0,0.4458 -1.4481,0 0,1.2919 1.5594,0 0,0.4455 -2.0719,0 L -2.1053,0 0,0"
         id="path3029"
         style="fill:#231f20;fill-opacity:1;fill-rule:nonzero;stroke:none" /></g><g
       transform="translate(10.773,3.8719)"
       id="g3031"><path
         d="m 0,0 c 0.05,0.7795 -0.256,1.1918 -1.0527,1.1918 -0.7909,0 -1.2921,-0.323 -1.2921,-1.4592 l 0,-1.1363 c 0,-1.5593 0.7687,-1.5928 1.2698,-1.5928 0.2618,0 1.159,0 1.136,1.2699 l -0.529,0 c -0.005,-0.7852 -0.4789,-0.841 -0.6347,-0.841 -0.3955,0 -0.7185,0.117 -0.7185,1.1028 l 0,1.0748 c 0,0.6907 0.1002,0.791 0.1169,0.8355 0.0168,0.0556 0.1838,0.312 0.6071,0.312 0.1058,0 0.3452,-0.0448 0.4512,-0.1727 C -0.54,0.4566 -0.523,0.2283 -0.529,0 L 0,0"
         id="path3033"
         style="fill:#231f20;fill-opacity:1;fill-rule:nonzero;stroke:none" /></g><g
       transform="translate(11.506,2.4293)"
       id="g3035"><path
         d="m 0,0 c 0,-1.1138 0.412,-1.5539 1.264,-1.5539 0.852,0 1.265,0.4401 1.265,1.5539 l 0,2.5507 -0.513,0 0,-2.573 c 0,-0.8798 -0.267,-1.1027 -0.752,-1.1027 -0.484,0 -0.752,0.2229 -0.752,1.1027 l 0,2.573 L 0,2.5507 0,0"
         id="path3037"
         style="fill:#231f20;fill-opacity:1;fill-rule:nonzero;stroke:none" /></g><g
       transform="translate(15.38,4.5345)"
       id="g3039"><path
         d="m 0,0 0.774,0 c 0.396,0 0.54,-0.323 0.54,-0.6127 0,-0.3508 -0.178,-0.6682 -0.545,-0.6682 L 0,-1.2809 0,0 z m 0.601,-1.7264 c 0.173,0 0.569,-0.0223 0.607,-0.5123 0.045,-0.5347 0.012,-1.0583 0.156,-1.3367 l 0.535,0 C 1.821,-3.3248 1.765,-2.6955 1.76,-2.5228 1.732,-1.7152 1.565,-1.5593 1.103,-1.4869 l 0,0.0113 c 0.473,0.0834 0.735,0.4453 0.735,0.9187 0,0.5014 -0.251,1.0024 -0.964,1.0024 l -1.386,0 0,-4.0209 0.512,0 0,1.849 0.601,0"
         id="path3041"
         style="fill:#231f20;fill-opacity:1;fill-rule:evenodd;stroke:none" /></g><path
       d="m 17.995,0.95906 0.51234,0 0,4.0209 -0.51234,0 0,-4.0209 z"
       id="path3043"
       style="fill:#231f20;fill-opacity:1;fill-rule:nonzero;stroke:none" /><g
       transform="translate(19.056,4.98)"
       id="g3045"><path
         d="m 0,0 0,-0.4455 1.058,0 0,-3.5754 0.513,0 0,3.5754 1.058,0 L 2.629,0 0,0"
         id="path3047"
         style="fill:#231f20;fill-opacity:1;fill-rule:nonzero;stroke:none" /></g><path
       d="m 22.236,0.95906 0.51234,0 0,4.0209 -0.51234,0 0,-4.0209 z"
       id="path3049"
       style="fill:#231f20;fill-opacity:1;fill-rule:nonzero;stroke:none" /><g
       transform="translate(25.776,0.95906)"
       id="g3051"><path
         d="m 0,0 0,0.4455 -1.593,0 0,1.3922 1.448,0 0,0.4458 -1.448,0 0,1.2919 1.559,0 0,0.4455 -2.071,0 L -2.105,0 0,0"
         id="path3053"
         style="fill:#231f20;fill-opacity:1;fill-rule:nonzero;stroke:none" /></g><g
       transform="translate(26.293,2.1565)"
       id="g3055"><path
         d="m 0,0 c -0.011,-0.3844 -0.011,-1.2921 1.175,-1.2811 0.663,0 1.248,0.2728 1.248,1.1194 0,1.2755 -1.805,1.1475 -1.805,2.033 0,0.4345 0.312,0.5903 0.618,0.5903 0.485,0 0.624,-0.2896 0.619,-0.7296 l 0.534,0 c 0.034,0.8187 -0.378,1.1752 -1.114,1.1752 -0.673,0 -1.18,-0.3785 -1.18,-1.0917 0,-1.2085 1.804,-1.1084 1.804,-1.9993 0,-0.479 -0.312,-0.6517 -0.718,-0.6517 -0.329,0 -0.674,0.1727 -0.674,0.7185 L 0.507,0 0,0"
         id="path3057"
         style="fill:#231f20;fill-opacity:1;fill-rule:nonzero;stroke:none" /></g><path
       d="m 30.717,0.95906 0.51246,0 0,4.0209 -0.51246,0 0,-4.0209 z"
       id="path3059"
       style="fill:#231f20;fill-opacity:1;fill-rule:nonzero;stroke:none" /><g
       transform="translate(34.479,4.98)"
       id="g3061"><path
         d="m 0,0 0,-3.4418 -0.011,0 L -1.576,0 -2.3,0 l 0,-4.0209 0.457,0 0,3.4865 0.011,0 1.587,-3.4865 0.702,0 L 0.457,0 0,0"
         id="path3063"
         style="fill:#231f20;fill-opacity:1;fill-rule:nonzero;stroke:none" /></g><g
       transform="translate(38.394,4.98)"
       id="g3065"><path
         d="m 0,0 -0.524,0 -0.941,-3.5365 -0.011,0 L -2.395,0 l -0.557,0 1.164,-4.0209 0.613,0 L 0,0"
         id="path3067"
         style="fill:#231f20;fill-opacity:1;fill-rule:nonzero;stroke:none" /></g><g
       transform="translate(40.976,0.95906)"
       id="g3069"><path
         d="m 0,0 0,0.4455 -1.593,0 0,1.3922 1.448,0 0,0.4458 -1.448,0 0,1.2919 1.56,0 0,0.4455 -2.072,0 L -2.105,0 0,0"
         id="path3071"
         style="fill:#231f20;fill-opacity:1;fill-rule:nonzero;stroke:none" /></g><g
       transform="translate(41.493,2.1565)"
       id="g3073"><path
         d="m 0,0 c -0.011,-0.3844 -0.011,-1.2921 1.175,-1.2811 0.663,0 1.248,0.2728 1.248,1.1194 0,1.2755 -1.805,1.1475 -1.805,2.033 0,0.4345 0.312,0.5903 0.619,0.5903 0.484,0 0.623,-0.2896 0.618,-0.7296 l 0.534,0 C 2.423,2.5507 2.01,2.9072 1.275,2.9072 c -0.673,0 -1.18,-0.3785 -1.18,-1.0917 0,-1.2085 1.804,-1.1084 1.804,-1.9993 0,-0.479 -0.312,-0.6517 -0.718,-0.6517 -0.329,0 -0.674,0.1727 -0.674,0.7185 L 0.507,0 0,0"
         id="path3075"
         style="fill:#231f20;fill-opacity:1;fill-rule:nonzero;stroke:none" /></g><g
       transform="translate(44.286,4.98)"
       id="g3077"><path
         d="m 0,0 0,-0.4455 1.058,0 0,-3.5754 0.513,0 0,3.5754 1.058,0 L 2.629,0 0,0"
         id="path3079"
         style="fill:#231f20;fill-opacity:1;fill-rule:nonzero;stroke:none" /></g><g
       transform="translate(48.647,0.87539)"
       id="g3081"><path
         d="m 0,0 c 0.852,0 1.264,0.4402 1.264,1.5539 l 0,1.32 c 0,0.802 -0.412,1.3144 -1.264,1.3144 -0.852,0 -1.264,-0.5124 -1.264,-1.3144 l 0,-1.32 C -1.264,0.4402 -0.852,0 0,0 z m 0,0.4289 c -0.485,0 -0.741,0.2229 -0.741,1.1027 l 0,1.3589 c 0,0.8412 0.58,0.8689 0.741,0.8689 0.161,0 0.741,-0.0277 0.741,-0.8689 l 0,-1.3589 C 0.741,0.6518 0.484,0.4289 0,0.4289"
         id="path3083"
         style="fill:#231f20;fill-opacity:1;fill-rule:evenodd;stroke:none" /></g><g
       transform="translate(51.256,4.5345)"
       id="g3085"><path
         d="m 0,0 0.774,0 c 0.396,0 0.541,-0.323 0.541,-0.6127 0,-0.3508 -0.179,-0.6682 -0.546,-0.6682 L 0,-1.2809 0,0 z m 0.602,-1.7264 c 0.172,0 0.568,-0.0223 0.607,-0.5123 0.044,-0.5347 0.011,-1.0583 0.156,-1.3367 l 0.534,0 C 1.821,-3.3248 1.766,-2.6955 1.76,-2.5228 1.732,-1.7152 1.565,-1.5593 1.103,-1.4869 l 0,0.0113 c 0.473,0.0834 0.735,0.4453 0.735,0.9187 0,0.5014 -0.251,1.0024 -0.963,1.0024 l -1.387,0 0,-4.0209 0.512,0 0,1.849 0.602,0"
         id="path3087"
         style="fill:#231f20;fill-opacity:1;fill-rule:evenodd;stroke:none" /></g><g
       transform="translate(55.574,4.5345)"
       id="g3089"><path
         d="m 0,0 0.707,0 c 0.111,0 0.568,-0.0612 0.568,-0.6738 0,-0.6293 -0.501,-0.6851 -0.712,-0.6851 L 0,-1.3589 0,0 z m 0,-3.5754 0,1.7709 0.674,0 c 0.412,0 1.125,0.1894 1.125,1.1028 0,0.9469 -0.58,1.1472 -1.12,1.1472 l -1.192,0 0,-4.0209 0.513,0"
         id="path3091"
         style="fill:#231f20;fill-opacity:1;fill-rule:evenodd;stroke:none" /></g><g
       transform="translate(58.545,4.5345)"
       id="g3093"><path
         d="m 0,0 0.774,0 c 0.396,0 0.54,-0.323 0.54,-0.6127 0,-0.3508 -0.178,-0.6682 -0.545,-0.6682 L 0,-1.2809 0,0 z m 0.602,-1.7264 c 0.172,0 0.568,-0.0223 0.607,-0.5123 0.044,-0.5347 0.011,-1.0583 0.156,-1.3367 l 0.534,0 C 1.821,-3.3248 1.766,-2.6955 1.76,-2.5228 1.732,-1.7152 1.565,-1.5593 1.103,-1.4869 l 0,0.0113 c 0.473,0.0834 0.735,0.4453 0.735,0.9187 0,0.5014 -0.251,1.0024 -0.964,1.0024 l -1.386,0 0,-4.0209 0.512,0 0,1.849 0.602,0"
         id="path3095"
         style="fill:#231f20;fill-opacity:1;fill-rule:evenodd;stroke:none" /></g><g
       transform="translate(62.341,0.87539)"
       id="g3097"><path
         d="m 0,0 c 0.852,0 1.264,0.4402 1.264,1.5539 l 0,1.32 c 0,0.802 -0.412,1.3144 -1.264,1.3144 -0.852,0 -1.264,-0.5124 -1.264,-1.3144 l 0,-1.32 C -1.264,0.4402 -0.852,0 0,0 z m 0,0.4289 c -0.484,0 -0.741,0.2229 -0.741,1.1027 l 0,1.3589 c 0,0.8412 0.58,0.8689 0.741,0.8689 0.161,0 0.741,-0.0277 0.741,-0.8689 l 0,-1.3589 C 0.741,0.6518 0.484,0.4289 0,0.4289"
         id="path3099"
         style="fill:#231f20;fill-opacity:1;fill-rule:evenodd;stroke:none" /></g><g
       transform="translate(64.076,4.98)"
       id="g3101"><path
         d="m 0,0 0,-0.4455 1.058,0 0,-3.5754 0.513,0 0,3.5754 1.058,0 L 2.629,0 0,0"
         id="path3103"
         style="fill:#231f20;fill-opacity:1;fill-rule:nonzero;stroke:none" /></g><g
       transform="translate(69.294,0.95906)"
       id="g3105"><path
         d="m 0,0 0,0.4455 -1.593,0 0,1.3922 1.448,0 0,0.4458 -1.448,0 0,1.2919 1.559,0 0,0.4455 -2.071,0 L -2.105,0 0,0"
         id="path3107"
         style="fill:#231f20;fill-opacity:1;fill-rule:nonzero;stroke:none" /></g><g
       transform="translate(72.229,3.8719)"
       id="g3109"><path
         d="m 0,0 c 0.05,0.7795 -0.256,1.1918 -1.053,1.1918 -0.791,0 -1.292,-0.323 -1.292,-1.4592 l 0,-1.1363 c 0,-1.5593 0.769,-1.5928 1.27,-1.5928 0.262,0 1.158,0 1.136,1.2699 l -0.529,0 c -0.005,-0.7852 -0.479,-0.841 -0.635,-0.841 -0.395,0 -0.718,0.117 -0.718,1.1028 l 0,1.0748 c 0,0.6907 0.1,0.791 0.117,0.8355 0.016,0.0556 0.183,0.312 0.607,0.312 0.106,0 0.345,-0.0448 0.451,-0.1727 C -0.54,0.4566 -0.524,0.2283 -0.529,0 L 0,0"
         id="path3111"
         style="fill:#231f20;fill-opacity:1;fill-rule:nonzero;stroke:none" /></g><g
       transform="translate(72.605,4.98)"
       id="g3113"><path
         d="m 0,0 0,-0.4455 1.058,0 0,-3.5754 0.513,0 0,3.5754 1.058,0 L 2.629,0 0,0"
         id="path3115"
         style="fill:#231f20;fill-opacity:1;fill-rule:nonzero;stroke:none" /></g><path
       d="m 75.785,0.95906 0.51258,0 0,4.0209 -0.51258,0 0,-4.0209 z"
       id="path3117"
       style="fill:#231f20;fill-opacity:1;fill-rule:nonzero;stroke:none" /><g
       transform="translate(78.467,0.87539)"
       id="g3119"><path
         d="m 0,0 c 0.852,0 1.264,0.4402 1.264,1.5539 l 0,1.32 c 0,0.802 -0.412,1.3144 -1.264,1.3144 -0.852,0 -1.264,-0.5124 -1.264,-1.3144 l 0,-1.32 C -1.264,0.4402 -0.852,0 0,0 z m 0,0.4289 c -0.484,0 -0.741,0.2229 -0.741,1.1027 l 0,1.3589 c 0,0.8412 0.58,0.8689 0.741,0.8689 0.161,0 0.741,-0.0277 0.741,-0.8689 l 0,-1.3589 C 0.741,0.6518 0.485,0.4289 0,0.4289"
         id="path3121"
         style="fill:#231f20;fill-opacity:1;fill-rule:evenodd;stroke:none" /></g><g
       transform="translate(82.903,4.98)"
       id="g3123"><path
         d="m 0,0 0,-3.4418 -0.011,0 L -1.576,0 -2.3,0 l 0,-4.0209 0.457,0 0,3.4865 0.011,0 1.587,-3.4865 0.702,0 L 0.457,0 0,0"
         id="path3125"
         style="fill:#231f20;fill-opacity:1;fill-rule:nonzero;stroke:none" /></g><g
       transform="translate(87.735,3.8719)"
       id="g3127"><path
         d="m 0,0 c 0.05,0.7795 -0.256,1.1918 -1.053,1.1918 -0.791,0 -1.292,-0.323 -1.292,-1.4592 l 0,-1.1363 c 0,-1.5593 0.769,-1.5928 1.27,-1.5928 0.262,0 1.158,0 1.136,1.2699 l -0.529,0 c -0.005,-0.7852 -0.479,-0.841 -0.635,-0.841 -0.395,0 -0.718,0.117 -0.718,1.1028 l 0,1.0748 c 0,0.6907 0.1,0.791 0.117,0.8355 0.016,0.0556 0.183,0.312 0.607,0.312 0.106,0 0.345,-0.0448 0.451,-0.1727 C -0.54,0.4566 -0.524,0.2283 -0.529,0 L 0,0"
         id="path3129"
         style="fill:#231f20;fill-opacity:1;fill-rule:nonzero;stroke:none" /></g><g
       transform="translate(89.732,0.87539)"
       id="g3131"><path
         d="m 0,0 c 0.852,0 1.264,0.4402 1.264,1.5539 l 0,1.32 c 0,0.802 -0.412,1.3144 -1.264,1.3144 -0.852,0 -1.264,-0.5124 -1.264,-1.3144 l 0,-1.32 C -1.264,0.4402 -0.852,0 0,0 z m 0,0.4289 c -0.485,0 -0.741,0.2229 -0.741,1.1027 l 0,1.3589 c 0,0.8412 0.58,0.8689 0.741,0.8689 0.161,0 0.741,-0.0277 0.741,-0.8689 l 0,-1.3589 C 0.741,0.6518 0.484,0.4289 0,0.4289"
         id="path3133"
         style="fill:#231f20;fill-opacity:1;fill-rule:evenodd;stroke:none" /></g><g
       transform="translate(92.341,4.5345)"
       id="g3135"><path
         d="m 0,0 0.774,0 c 0.396,0 0.54,-0.323 0.54,-0.6127 0,-0.3508 -0.178,-0.6682 -0.545,-0.6682 L 0,-1.2809 0,0 z m 0.601,-1.7264 c 0.173,0 0.569,-0.0223 0.608,-0.5123 0.044,-0.5347 0.011,-1.0583 0.156,-1.3367 l 0.534,0 C 1.821,-3.3248 1.766,-2.6955 1.76,-2.5228 1.732,-1.7152 1.565,-1.5593 1.103,-1.4869 l 0,0.0113 c 0.473,0.0834 0.735,0.4453 0.735,0.9187 0,0.5014 -0.251,1.0024 -0.964,1.0024 l -1.387,0 0,-4.0209 0.513,0 0,1.849 0.601,0"
         id="path3137"
         style="fill:#231f20;fill-opacity:1;fill-rule:evenodd;stroke:none" /></g><g
       transform="translate(95.469,4.5345)"
       id="g3139"><path
         d="m 0,0 0.707,0 c 0.112,0 0.568,-0.0612 0.568,-0.6738 0,-0.6293 -0.501,-0.6851 -0.712,-0.6851 L 0,-1.3589 0,0 z m 0,-3.5754 0,1.7709 0.674,0 c 0.412,0 1.125,0.1894 1.125,1.1028 0,0.9469 -0.579,1.1472 -1.12,1.1472 l -1.191,0 0,-4.0209 0.512,0"
         id="path3141"
         style="fill:#231f20;fill-opacity:1;fill-rule:evenodd;stroke:none" /></g><g
       transform="translate(99.187,0.87539)"
       id="g3143"><path
         d="m 0,0 c 0.852,0 1.264,0.4402 1.264,1.5539 l 0,1.32 c 0,0.802 -0.412,1.3144 -1.264,1.3144 -0.852,0 -1.264,-0.5124 -1.264,-1.3144 l 0,-1.32 C -1.264,0.4402 -0.852,0 0,0 z m 0,0.4289 c -0.485,0 -0.741,0.2229 -0.741,1.1027 l 0,1.3589 c 0,0.8412 0.579,0.8689 0.741,0.8689 0.161,0 0.741,-0.0277 0.741,-0.8689 l 0,-1.3589 C 0.741,0.6518 0.484,0.4289 0,0.4289"
         id="path3145"
         style="fill:#231f20;fill-opacity:1;fill-rule:evenodd;stroke:none" /></g><g
       transform="translate(101.796,4.5345)"
       id="g3147"><path
         d="m 0,0 0.774,0 c 0.396,0 0.54,-0.323 0.54,-0.6127 0,-0.3508 -0.178,-0.6682 -0.545,-0.6682 L 0,-1.2809 0,0 z m 0.602,-1.7264 c 0.172,0 0.568,-0.0223 0.607,-0.5123 0.044,-0.5347 0.011,-1.0583 0.156,-1.3367 l 0.534,0 C 1.821,-3.3248 1.766,-2.6955 1.76,-2.5228 1.732,-1.7152 1.565,-1.5593 1.103,-1.4869 l 0,0.0113 c 0.473,0.0834 0.735,0.4453 0.735,0.9187 0,0.5014 -0.251,1.0024 -0.964,1.0024 l -1.386,0 0,-4.0209 0.512,0 0,1.849 0.602,0"
         id="path3149"
         style="fill:#231f20;fill-opacity:1;fill-rule:evenodd;stroke:none" /></g><g
       transform="translate(103.977,0.95906)"
       id="g3151"><path
         d="m 0,0 0.518,0 0.301,0.9579 1.554,0 L 2.662,0 3.236,0 1.927,4.0209 1.275,4.0209 0,0 z m 2.233,1.4034 -1.286,0 0.629,2.1443 0.011,0 0.646,-2.1443"
         id="path3153"
         style="fill:#231f20;fill-opacity:1;fill-rule:evenodd;stroke:none" /></g><g
       transform="translate(106.915,4.98)"
       id="g3155"><path
         d="m 0,0 0,-0.4455 1.058,0 0,-3.5754 0.513,0 0,3.5754 1.058,0 L 2.629,0 0,0"
         id="path3157"
         style="fill:#231f20;fill-opacity:1;fill-rule:nonzero;stroke:none" /></g><path
       d="m 110.095,0.95906 0.51258,0 0,4.0209 -0.51258,0 0,-4.0209 z"
       id="path3159"
       style="fill:#231f20;fill-opacity:1;fill-rule:nonzero;stroke:none" /><g
       transform="translate(112.777,0.87539)"
       id="g3161"><path
         d="m 0,0 c 0.852,0 1.264,0.4402 1.264,1.5539 l 0,1.32 c 0,0.802 -0.412,1.3144 -1.264,1.3144 -0.852,0 -1.264,-0.5124 -1.264,-1.3144 l 0,-1.32 C -1.264,0.4402 -0.852,0 0,0 z m 0,0.4289 c -0.484,0 -0.741,0.2229 -0.741,1.1027 l 0,1.3589 c 0,0.8412 0.58,0.8689 0.741,0.8689 0.161,0 0.741,-0.0277 0.741,-0.8689 l 0,-1.3589 C 0.741,0.6518 0.484,0.4289 0,0.4289"
         id="path3163"
         style="fill:#231f20;fill-opacity:1;fill-rule:evenodd;stroke:none" /></g><g
       transform="translate(117.214,4.98)"
       id="g3165"><path
         d="m 0,0 0,-3.4418 -0.011,0 L -1.576,0 -2.3,0 l 0,-4.0209 0.456,0 0,3.4865 0.011,0 1.588,-3.4865 0.702,0 L 0.457,0 0,0"
         id="path3167"
         style="fill:#231f20;fill-opacity:1;fill-rule:nonzero;stroke:none" /></g><g
       transform="translate(28.065,55.103)"
       id="g3169"><path
         d="m 0,0 0,-15.158 c -0.259,-0.258 -0.259,-0.064 -0.313,0.281 -0.364,2.311 -0.57,6.216 -4.088,9.38 -7.84,7.05 -17.422,3.981 -15.491,-4.67 2.455,-10.998 19.733,-4.963 21.996,-19.275 2.392,-15.137 -11.441,-19.896 -22.439,-14.189 0,0 -2.839,1.779 -3.961,1.33 -0.486,-0.194 -0.806,-1.189 -0.881,-2.275 -0.037,-1.572 -0.473,-1.101 -0.449,-0.965 -0.004,0.653 0,16.187 0,16.187 0.012,0.295 0.253,0.212 0.253,0.115 0.279,-17.947 19.756,-20.238 19.377,-9.81 -0.449,12.329 -19.548,9.132 -21.303,21.779 -2.159,15.545 13.453,19.911 22.543,13.191 1.799,-1.329 3.471,0.713 3.758,1.133 0.613,0.894 0.414,1.78 0.655,2.953 C -0.247,0.472 0,0.323 0,0"
         id="path3171"
         style="fill:#231f20;fill-opacity:1;fill-rule:nonzero;stroke:none" /></g><g
       transform="translate(117.411,39.824)"
       id="g3173"><path
         d="m 0,0 c 0.096,-1.123 -0.509,-0.835 -0.509,-0.835 1.473,11.618 -21.835,25.259 -23.338,-4.505 -1.329,-26.313 16.927,-31.502 24.078,-13.53 0.071,0.25 0.524,1.596 0.544,1.711 0.084,0.475 0.154,-0.071 0.084,-0.603 -4.044,-23.019 -42.81,-15.362 -33.92,18.243 2.111,7.979 12.46,15.662 20.756,13.365 4.943,-1.368 4.326,-2.091 7.315,-3.67 3.354,-1.772 4.218,2.341 4.632,4.43 0.377,0.209 0.355,-0.506 0.355,-0.506 L 0,0"
         id="path3175"
         style="fill:#231f20;fill-opacity:1;fill-rule:nonzero;stroke:none" /></g><g
       transform="translate(71.947,48.671)"
       id="g3177"><path
         d="M 0,0 C -1.778,2.733 -4.658,4.354 -7.999,4.1 -8.457,4.118 -8.432,3.851 -8.432,3.851 l 0,-21.367 c 0.003,-0.459 0.433,-0.456 0.433,-0.456 3.746,-0.304 6.973,1.984 8.758,5.214 C 2.886,-8.91 2.19,-3.367 0,0 z m 10.699,-3.693 c 0.927,-5.377 -0.186,-9.68 -2.903,-12.102 -4.731,-3.818 -9.928,-2.663 -15.575,-2.886 -0.714,0.043 -0.653,-0.823 -0.653,-0.823 l 0,-19.616 -11.491,-0.004 -0.006,42.972 c 0.069,0.84 -1.561,0.607 -2.589,0.657 -0.5,0.066 -0.253,0.435 -0.02,0.474 4.458,-0.097 17.869,0.407 25.37,-1.131 3.882,-0.796 7.122,-3.211 7.867,-7.541"
         id="path3179"
         style="fill:#231f20;fill-opacity:1;fill-rule:nonzero;stroke:none" /></g><g
       transform="translate(46.336,37.391)"
       id="g3181"><path
         d="m 0,0 0,-27.84 c -1.629,-0.016 -11.767,-0.004 -11.767,-0.004 l 0.008,26.716 c 0,0 0.053,0.992 -0.6,1.018 -1.358,0.054 -3.188,0.202 -3.188,0.202 -0.233,0.014 -0.473,0.321 0,0.354 1.385,0 14.921,0 14.921,0 C 0.04,0.466 0,0 0,0"
         id="path3183"
         style="fill:#231f20;fill-opacity:1;fill-rule:nonzero;stroke:none" /></g></g></svg>