<svg preserveAspectRatio="none" width="100%" height="100%" overflow="visible" style="display: block;" viewBox="0 0 36.0009 19.9987" fill="none" xmlns="http://www.w3.org/2000/svg">
<g id="g2993">
<g id="g2995">
<path id="path2997" fill-rule="evenodd" clip-rule="evenodd" d="M8.32675 17.1539L7.59351 17.8953V17.9003L8.52061 17.3499L8.7374 17.5691L8.21117 18.5128H8.21606L8.94318 17.7772L9.15386 17.9906L8.28455 18.8697L7.90998 18.4909L8.36161 17.7568L8.35916 17.7544L7.62837 18.2061L7.24646 17.8199L8.11607 16.9408L8.32675 17.1539Z" fill="var(--fill-0, #9A9A9A)"/>
</g>
<g id="g2999">
<path id="path3001" d="M10.3168 18.5149L10.2235 18.7369L9.67497 18.5012L9.57315 18.744L10.078 18.9604L9.98472 19.1824L9.47989 18.9657L9.38082 19.2019L9.92938 19.4375L9.83642 19.6592L8.97415 19.2894L9.45451 18.1447L10.3168 18.5149Z" fill="var(--fill-0, #9A9A9A)"/>
</g>
<g id="g3003">
<path id="path3005" d="M10.8841 18.6385L10.7756 19.6815L10.7786 19.6852L11.1568 18.6676L11.4617 18.6997L11.64 19.768L11.6436 19.7649L11.7513 18.7306L12.0476 18.7622L11.9191 19.9987L11.3923 19.9427L11.2865 19.0847L11.2828 19.0844L10.996 19.9007L10.4591 19.8435L10.5878 18.607L10.8841 18.6385Z" fill="var(--fill-0, #9A9A9A)"/>
</g>
<g id="g3007">
<path id="path3009" fill-rule="evenodd" clip-rule="evenodd" d="M12.9497 18.5932C12.9613 18.5901 13.3982 18.4553 13.4848 18.8059C13.5273 18.9782 13.4236 19.1127 13.2701 19.1742L13.271 19.1776C13.4111 19.1689 13.5572 19.228 13.5939 19.3767C13.6462 19.5888 13.4829 19.7382 13.2588 19.7966L12.687 19.9407L12.3895 18.7345L12.9497 18.5932ZM12.7778 18.8851L12.842 19.1458L13.0585 19.091C13.1316 19.0672 13.1622 18.9921 13.1457 18.9253C13.127 18.8502 13.0536 18.8155 12.9711 18.8362L12.7778 18.8851ZM12.9597 19.6235L13.1398 19.578C13.2175 19.5585 13.2634 19.4955 13.2466 19.4268C13.2239 19.335 13.1573 19.3146 13.0683 19.3372L12.8992 19.378L12.9597 19.6235Z" fill="var(--fill-0, #9A9A9A)"/>
</g>
<g id="g3011">
<path id="path3013" d="M14.4572 17.8862L14.5872 18.0884L14.0872 18.4165L14.2291 18.6376L14.689 18.3358L14.8189 18.5377L14.3588 18.8398L14.4973 19.055L14.9969 18.7269L15.1269 18.9288L14.3413 19.4449L13.6717 18.402L14.4572 17.8862Z" fill="var(--fill-0, #9A9A9A)"/>
</g>
<g id="g3015">
<path id="path3017" fill-rule="evenodd" clip-rule="evenodd" d="M15.441 17.8915L15.6606 18.0714L15.7443 17.9669C15.8128 17.8813 15.8676 17.7885 15.7694 17.7084C15.6716 17.628 15.5933 17.7013 15.5245 17.787L15.441 17.8915ZM15.2557 17.7397L15.3361 17.6395C15.4456 17.5028 15.4022 17.4586 15.2955 17.3535C15.2334 17.2916 15.171 17.227 15.1166 17.1584L15.3493 16.8677C15.4077 16.9534 15.4713 17.03 15.5453 17.1018C15.6795 17.2403 15.7401 17.343 15.6067 17.5174L15.6119 17.522C15.7361 17.3995 15.9006 17.3504 16.0434 17.4676C16.2461 17.6333 16.1204 17.8804 15.9896 18.0436L15.6315 18.4907L14.6763 17.7084L14.8903 17.4407L15.2557 17.7397Z" fill="var(--fill-0, #9A9A9A)"/>
</g>
<g id="g3019">
<path id="path3021" d="M10.4658 16.8839C10.3891 16.9303 10.2973 16.9458 10.2053 16.9458C9.99064 16.853 9.79158 16.7754 9.60751 16.6514C9.08648 16.233 8.88742 15.5512 8.79538 14.9158C8.7648 14.5902 8.90271 14.2959 8.96386 14.0015C9.04061 13.5055 9.30113 13.1181 9.60751 12.7307L9.69955 12.6997C9.71483 12.7307 9.68426 12.777 9.68426 12.8237C9.39316 13.397 9.04061 14.0015 9.13265 14.7297C9.22468 14.8846 9.42374 15.024 9.37787 15.2256H9.3473C9.25526 15.0707 9.17851 14.8846 9.04061 14.8073C9.17851 15.024 9.1938 15.3187 9.23997 15.5822C9.28584 15.6595 9.36259 15.5512 9.39316 15.5358L9.43903 15.5976C9.46961 15.6131 9.51578 15.6285 9.53107 15.5976C9.56164 15.3963 9.56164 15.1947 9.51578 15.024C9.57693 15.0707 9.60751 15.1483 9.63839 15.2102C9.71483 15.3806 9.6231 15.5512 9.63839 15.7216C9.74572 15.8147 9.77629 15.9541 9.85274 16.0627C10.1285 16.1709 9.96006 15.768 10.098 15.6907C10.1594 15.7835 10.1747 15.892 10.2359 15.9851C10.1441 16.0627 10.0674 16.1867 9.97535 16.2485C9.80687 16.3725 9.76101 16.0936 9.6231 16.0781C9.42374 16.0314 9.43903 15.8147 9.3317 15.7061C9.25526 15.768 9.27055 15.8765 9.28584 15.9696C9.30113 16.109 9.45432 16.1245 9.54635 16.2021C9.69955 16.264 9.73012 16.4346 9.79158 16.5583C9.85274 16.5741 9.92949 16.5583 9.96006 16.4965C10.19 16.5274 10.1285 16.2485 10.2973 16.1709C10.4964 16.1554 10.5578 15.9851 10.7263 15.9229C10.8489 16.0781 10.5884 16.14 10.5731 16.2949C10.4505 16.481 10.6343 16.729 10.4658 16.8839ZM10.3738 15.9541C10.2973 15.9074 10.2515 15.7835 10.2053 15.6907C10.2206 15.6595 10.2515 15.6752 10.282 15.6752C10.4047 15.7216 10.3891 15.8611 10.3738 15.9541ZM10.6957 15.8301C10.4047 15.9074 10.4811 15.5358 10.3585 15.3963C10.3126 15.3651 10.2668 15.3187 10.2206 15.3651C10.19 15.4272 10.2206 15.4891 10.2053 15.52C10.19 15.4427 10.1133 15.4427 10.0674 15.4115C10.0827 15.3496 10.1594 15.3806 10.19 15.3496C10.3279 15.0707 10.1285 14.7918 9.99064 14.5593L9.97535 14.3577C10.0674 14.0015 10.282 13.7068 10.3891 13.3815C10.3738 13.6759 10.1747 13.893 10.1747 14.1873C10.1133 14.4975 10.4199 14.5593 10.4964 14.7918C10.5273 14.9004 10.4658 15.0862 10.619 15.1017C10.6499 15.1793 10.6343 15.3033 10.6343 15.3651C10.5578 15.272 10.3738 15.2102 10.4505 15.0398C10.4047 14.8537 10.3738 14.5438 10.1285 14.5129C10.0674 14.5284 10.0827 14.5902 10.0827 14.6366C10.2206 14.7297 10.3126 14.9313 10.282 15.1171C10.2973 15.3496 10.5884 15.4582 10.5578 15.7216C10.5731 15.7992 10.6652 15.7992 10.6957 15.8301ZM9.88362 15.2256C9.89891 15.3187 9.9142 15.4427 9.82216 15.4891C9.86803 15.2878 9.74572 15.1483 9.71483 14.9931C9.80687 15.024 9.86803 15.1326 9.88362 15.2256ZM10.0521 15.0553C10.0674 15.0707 10.0827 15.1326 10.0368 15.1326C9.96006 15.0089 9.89891 14.8846 9.79158 14.7918C9.71483 14.6833 9.74572 14.5129 9.69955 14.3889C9.73012 14.3577 9.71636 14.3104 9.76101 14.2652C9.82216 14.2031 9.86803 14.0943 9.9142 14.0015C9.94477 13.7226 10.1441 13.521 10.1747 13.2421C10.19 13.1336 10.1594 13.0096 10.2359 12.9165C10.2668 13.0096 10.2973 13.1336 10.2668 13.2421C10.2359 13.3506 10.2053 13.4746 10.1594 13.5831C10.1285 13.769 10.0536 13.999 9.92215 14.1607C9.8191 14.2881 9.85274 14.3735 9.82216 14.5129C9.86803 14.6988 9.99064 14.8691 10.0521 15.0553ZM9.4852 14.1719C9.42374 14.3577 9.53107 14.6215 9.3473 14.7451C9.27055 14.6524 9.28584 14.4817 9.28584 14.3577C9.28584 13.893 9.53107 13.521 9.68426 13.1336C9.74572 13.0405 9.76101 12.8856 9.85274 12.8083C9.87414 12.8321 9.92949 13.0563 9.82216 13.1645C9.69955 13.5055 9.4852 13.7999 9.4852 14.1719ZM9.65368 14.3422C9.64328 14.4396 9.66897 14.5129 9.59222 14.5438C9.54635 14.3577 9.54972 14.1326 9.60751 13.9393C9.67264 13.7232 9.85274 13.3042 10.0062 12.9941C10.0521 12.8701 10.0368 12.6997 10.0215 12.5757C10.0521 12.6376 10.098 12.6997 10.1133 12.7616C10.0674 13.0096 10.0521 13.3042 9.92949 13.5364C9.83745 13.8154 9.6916 13.9894 9.65368 14.3422ZM10.941 14.3422C10.8948 14.4044 10.8489 14.4817 10.7878 14.5284C10.6499 14.2959 10.5578 14.017 10.6499 13.7535C10.7878 13.7844 10.7263 13.9551 10.7878 14.0324C10.8031 14.1719 10.9716 14.2028 10.941 14.3422ZM10.5426 13.7535C10.3432 13.9706 10.4811 14.2649 10.5426 14.4817L10.3279 14.3113C10.2668 14.0791 10.3432 13.8308 10.5117 13.6759C10.5578 13.6759 10.5426 13.7226 10.5426 13.7535ZM11.3088 13.6604C11.2626 13.8466 11.2932 14.11 11.0789 14.1564C11.0021 14.0633 10.8902 14.0581 10.9208 13.9341C10.956 13.9019 10.9868 13.7068 11.0942 13.7535C11.1862 13.7381 11.2015 13.645 11.2321 13.5831C11.2782 13.5519 11.3088 13.6141 11.3088 13.6604ZM11.0174 12.9165C10.8642 12.901 10.8795 13.0717 10.8184 13.1645C10.7725 13.0405 10.8031 12.9165 10.8184 12.7928C10.8642 12.777 10.8948 12.8392 10.9563 12.8392C11.0636 12.8083 10.9868 12.6688 11.0021 12.6067C11.0327 12.6221 11.0483 12.6534 11.0636 12.6843C11.2782 12.777 11.1709 12.4827 11.2782 12.4054C11.37 12.4208 11.3241 12.5448 11.4005 12.5912C11.4314 12.6221 11.4926 12.6067 11.4926 12.6534C11.4773 12.7461 11.4158 12.8701 11.3088 12.7928C11.1862 12.7928 11.1553 12.9477 11.0174 12.9165ZM10.9101 12.2814C10.8642 12.3587 10.8184 12.4827 10.711 12.5291C10.6652 12.4827 10.6037 12.4518 10.5884 12.3741C10.6343 12.3432 10.6343 12.2656 10.711 12.2501C10.7725 12.2501 10.8795 12.1883 10.9101 12.2814ZM11.4073 13.0878C11.4268 13.1175 11.3443 13.3908 11.3761 13.423C11.3898 13.3964 11.3978 13.3859 11.3987 13.3865C11.4005 13.3874 11.384 13.423 11.3761 13.423C11.3269 13.5185 11.2073 13.3339 11.0832 13.4125C11.0547 13.4697 10.9731 13.4196 10.9193 13.4091C10.9034 13.3602 10.9211 13.3172 10.9428 13.2749L10.9584 13.2452L11.0443 13.2943C11.1043 13.3488 11.1348 13.2943 11.1348 13.2452C11.1348 13.1468 11.104 13.1397 11.1642 13.0779C11.1727 13.0924 11.277 13.1833 11.2905 13.2155C11.2905 13.2155 11.3669 13.0263 11.4073 13.0878ZM14.4809 16.0314L14.2051 16.4346C13.9751 16.729 13.7146 16.9928 13.393 17.1164C13.2746 17.1622 13.1223 17.2577 12.9789 17.1164C12.7041 16.8453 12.9178 16.5429 12.8257 16.264C12.7187 16.0781 12.5347 15.9229 12.3047 15.9387C12.1977 16.0005 12.1209 16.109 11.983 16.0781C11.891 15.9696 11.7225 16.0936 11.6611 15.9387C11.5999 15.9074 11.5385 15.9229 11.4926 15.9696C11.4158 16.0469 11.37 15.9229 11.3241 15.892C11.2015 15.7835 11.0483 15.9696 10.9257 15.8456C10.6957 15.5667 10.8184 15.1017 10.8948 14.7609C10.9716 14.4817 11.2321 14.3113 11.4467 14.1409C11.4926 14.0633 11.3853 14.017 11.4158 13.9084C11.462 13.7226 11.5232 13.4901 11.7531 13.4746C11.7072 13.7226 11.6152 14.0791 11.8451 14.2649C11.891 14.2804 11.9216 14.2959 11.9525 14.2495C11.9678 14.11 11.8299 14.0015 11.8604 13.8466C11.891 13.6759 11.8604 13.4279 12.0904 13.4125C12.1362 13.4746 12.1209 13.5519 12.1821 13.5986C12.2436 13.6141 12.2741 13.5831 12.3047 13.5364C12.3662 13.4746 12.3815 13.5677 12.412 13.6141C12.4429 13.6295 12.5041 13.645 12.5347 13.5986C12.5808 13.5519 12.6726 13.5519 12.7034 13.6295C12.642 13.9239 12.5652 14.2186 12.2436 14.3113C12.1515 14.3422 12.213 14.4662 12.2588 14.4817C12.1515 14.6057 12.0904 14.3889 11.983 14.4817C11.9369 14.5902 12.1057 14.5902 12.1209 14.6833C12.2283 14.7297 12.3353 14.5902 12.3968 14.7451C12.4429 14.7609 12.4582 14.7142 12.4582 14.6833C12.4429 14.5902 12.412 14.5129 12.3203 14.4662C12.3815 14.3889 12.4888 14.4044 12.5347 14.3113C12.6878 14.2649 12.7187 14.0633 12.8257 13.9551C12.8105 13.9084 12.8257 13.8466 12.8719 13.8466L12.9484 14.0324C13.0404 14.1409 13.0251 14.2959 13.1477 14.3577C13.1783 14.3735 13.1936 14.3113 13.2089 14.2959L13.0404 13.8775C13.0404 13.8466 13.0098 13.7844 13.0557 13.769C13.0863 13.8775 13.1936 13.9706 13.163 14.0943C13.2242 14.1719 13.3009 14.2649 13.2856 14.3889C13.1324 14.4353 13.0251 14.5593 12.9636 14.7142C12.9331 14.8227 12.9484 14.9467 12.8872 15.0398C12.7799 15.024 12.6726 15.0553 12.5961 15.1171C12.5194 15.2256 12.4429 15.3963 12.2741 15.4115C12.2588 15.4272 12.2436 15.4736 12.2894 15.4891C12.4429 15.52 12.6267 15.5358 12.7646 15.644C13.0098 15.8611 13.0404 16.2021 13.0098 16.5274C12.9945 16.729 13.2242 16.605 13.2703 16.7445C13.3315 16.7754 13.3777 16.7754 13.4235 16.7135C13.5156 16.4189 13.9599 16.5741 14.0825 16.2794C14.0978 16.1867 13.9599 16.233 13.9293 16.2176C13.9599 16.109 14.0978 16.0469 14.0825 15.9074C14.0519 15.8611 14.006 15.8147 13.9446 15.8301C13.7761 15.9541 13.7299 16.1554 13.6382 16.3261H13.592C13.5309 16.1245 13.7455 16.016 13.8219 15.8456L13.7914 15.7835C13.7299 15.7525 13.6688 15.7992 13.6229 15.8301C13.5309 16.016 13.3162 16.1709 13.393 16.4034C13.3777 16.4501 13.3468 16.481 13.3009 16.481C13.2242 16.481 13.1936 16.4189 13.2089 16.3416C13.3624 16.109 13.4082 15.8147 13.6688 15.6752C13.7455 15.6131 13.7146 15.4891 13.684 15.4272C13.6535 15.2569 13.7455 15.1171 13.8525 15.024C13.8834 15.024 13.9293 15.0089 13.914 15.0707C13.8219 15.2256 13.7761 15.3806 13.7914 15.5667C13.7914 15.644 13.8834 15.7216 13.9293 15.6907C13.8987 15.5045 13.9446 15.3342 13.9904 15.1638C13.9904 15.1326 14.0366 15.1017 14.0672 15.1326C14.0366 15.272 13.9751 15.4272 14.0366 15.5667C14.0825 15.5976 14.1283 15.6595 14.1898 15.644C14.1283 15.52 14.1283 15.3496 14.1283 15.1947C14.1439 15.1017 14.2204 15.024 14.3124 15.0089C14.4809 15.1947 14.2051 15.3963 14.3124 15.644C14.3583 15.6907 14.3277 15.7835 14.4197 15.8147C14.4656 15.8147 14.4809 15.768 14.4809 15.7216C14.3892 15.5822 14.3892 15.3342 14.4809 15.1947C14.5729 15.1326 14.5882 14.9158 14.7108 15.0089C14.772 15.3651 14.6494 15.7371 14.4809 16.0314ZM13.5003 15.5358V15.5976L13.2089 15.892C13.2242 15.7061 13.3777 15.5976 13.5003 15.5358ZM13.3009 15.4115L13.1324 15.5667C13.1324 15.5976 13.0863 15.6752 13.0557 15.6285C13.0098 15.52 13.1477 15.4582 13.2089 15.3806C13.255 15.3496 13.2856 15.3806 13.3009 15.4115ZM13.1171 15.2569C12.9945 15.3033 12.9789 15.4427 12.8719 15.4891C12.8566 15.4427 12.8872 15.3806 12.9331 15.3496C12.9945 15.2878 13.0557 15.1638 13.1324 15.1638C13.163 15.1947 13.1477 15.2411 13.1171 15.2569ZM12.9178 15.1483C12.8257 15.2256 12.7646 15.3963 12.642 15.3496C12.6573 15.2102 12.8105 15.1947 12.8719 15.1171C12.9025 15.1017 12.9331 15.1326 12.9178 15.1483ZM13.7761 14.8227C13.6535 14.9467 13.5461 15.1326 13.5003 15.3187C13.4541 15.2569 13.4694 15.1326 13.5156 15.0553C13.5309 14.9158 13.6688 14.8846 13.7761 14.8227ZM13.4541 14.8073L13.3777 14.9313C13.3624 14.8691 13.4082 14.7918 13.4541 14.8073ZM13.8681 13.7844C14.0213 14.1409 14.0366 14.5438 14.113 14.9313L14.0213 14.8227C13.7914 14.5284 13.8219 14.11 13.6993 13.7535C13.6535 13.4746 13.4541 13.2266 13.2703 12.9941C13.255 12.9477 13.1936 12.8392 13.2856 12.8237C13.5156 13.1181 13.6535 13.4591 13.8681 13.7844ZM13.3777 14.5902C13.2703 14.6833 13.2242 14.8227 13.1477 14.9158L13.1324 14.8537C13.1324 14.7297 13.1936 14.6524 13.2856 14.5902C13.3162 14.5748 13.3624 14.5593 13.3777 14.5902ZM14.7108 14.6833C14.6802 14.7918 14.5729 14.8382 14.4962 14.8691C14.4962 14.5129 14.4197 14.2028 14.2971 13.893C14.1745 13.4437 13.8834 13.0096 13.6229 12.6067L13.6073 12.5291C13.7608 12.5757 13.8219 12.7152 13.9599 12.7928C14.3124 13.3661 14.665 13.986 14.7108 14.6833ZM14.3124 14.4353C14.343 14.5284 14.3736 14.6988 14.2818 14.7451C14.1439 14.5438 14.0978 14.2804 14.0825 14.017L13.9599 13.6917C13.8067 13.5364 13.7761 13.3194 13.6382 13.149C13.592 13.0717 13.5156 13.0563 13.5003 12.9786C13.4694 12.8856 13.3777 12.7928 13.393 12.7152C13.4388 12.7307 13.4082 12.6843 13.4388 12.6688C13.5309 12.6843 13.5309 12.7928 13.6073 12.8083C13.8834 13.3352 14.2357 13.8308 14.3124 14.4353ZM13.6993 14.5902C13.5614 14.5284 13.5461 14.3268 13.4847 14.1873C13.4694 13.986 13.5309 13.7226 13.3777 13.5831V14.1564L13.3468 14.1719C13.255 14.0479 13.2703 13.8775 13.1477 13.7535C13.0251 13.5677 13.0863 13.2885 13.1936 13.1026C13.3009 13.1645 13.3777 13.3042 13.4082 13.4125C13.5461 13.5519 13.5614 13.7226 13.6073 13.893C13.6993 14.0943 13.7146 14.3422 13.6993 14.5902ZM12.9025 13.2266C12.8719 13.3042 12.7952 13.5055 12.6878 13.3506C12.4888 13.273 12.2588 13.2575 12.0595 13.1799C12.0595 13.0563 12.1209 12.9632 12.213 12.8856C12.213 12.8392 12.2283 12.8237 12.2741 12.8237C12.3815 12.8237 12.3509 12.9632 12.3815 13.025C12.4888 13.149 12.4888 12.8856 12.6267 12.9323C12.6573 13.025 12.5961 13.1645 12.7187 13.2112C12.7799 13.1799 12.7952 13.0872 12.841 13.0563C12.9025 13.0872 12.8872 13.1645 12.9025 13.2266ZM13.1171 12.7152C13.071 12.777 13.071 12.8701 12.9945 12.8701C12.9025 12.7152 12.7187 12.8856 12.642 12.7307C12.5499 12.6221 12.3047 12.6221 12.3353 12.4672H12.642C12.7034 12.4363 12.7799 12.4208 12.8105 12.4981C12.8719 12.5912 12.9331 12.4672 13.0098 12.4981C13.0251 12.5757 13.0863 12.6376 13.1171 12.7152ZM12.9178 12.2192C12.7799 12.1728 12.7034 12.3123 12.5808 12.3278C12.5499 12.2968 12.5499 12.2501 12.5499 12.2192C12.5347 12.1416 12.2035 12.0254 12.2341 11.9632C12.4026 12.0099 12.8719 12.0643 12.9789 12.1883L12.9178 12.2192ZM11.1776 17.096C11.1776 17.096 11.4317 17.1384 11.4773 17.0237C11.6809 16.5082 11.0174 16.4656 11.0327 16.0627C11.1553 16.0469 11.3241 16.0005 11.4005 16.14L11.6152 16.0627C11.7225 16.0781 11.7378 16.2794 11.8757 16.2021C11.9369 16.2485 12.0136 16.264 12.0751 16.233C12.1515 16.264 12.1362 16.3725 12.1057 16.4346C11.9983 16.3725 11.8451 16.357 11.7072 16.3261C11.6764 16.3416 11.5999 16.4034 11.6458 16.4501C11.8146 16.3879 11.8146 16.6514 11.9983 16.5583C12.0904 16.605 12.1209 16.729 12.1057 16.8375C12.0784 17.1004 12.0307 17.3221 11.7286 17.3879C11.703 17.3935 11.6797 17.3947 11.6378 17.3725C11.6378 17.366 11.628 17.3437 11.6592 17.3354C11.6999 17.3242 11.7078 17.2769 11.6733 17.2516C11.6131 17.207 11.5115 17.2386 11.4831 17.2717C11.4684 17.2887 11.4476 17.2998 11.4057 17.2989C11.3321 17.2896 11.2055 17.263 11.1776 17.096ZM10.3041 12.1348C10.2921 12.1821 10.3343 12.2539 10.4952 12.4372C10.6881 12.6574 10.7104 13.0476 10.7468 13.2687C10.7915 13.5402 10.9596 13.7285 10.9596 13.7285C10.9596 13.7285 10.674 13.6363 10.5386 13.2254C10.4368 12.9168 10.3466 12.312 10.0815 12.2879C10.0604 12.286 10.0445 12.282 10.0325 12.2761C9.87842 12.3145 9.75917 12.3673 9.65154 12.483C9.65154 12.483 9.56592 12.5736 9.53718 12.5918C8.99841 13.2139 8.64219 14.0606 8.61131 14.9322C8.74952 15.8159 9.10421 16.7878 10.0175 17.0849C10.2056 17.1195 10.3781 17.1934 10.5658 17.0988C10.7905 16.9362 10.7584 16.5886 10.7722 16.3459C10.7786 16.3345 10.8315 16.298 10.8315 16.298C11.0122 16.4504 11.2049 16.6168 11.3391 16.8416C11.3357 16.8916 11.2721 16.947 11.2149 16.9615C11.1694 16.9615 11.1211 16.938 11.0743 16.934C11.0189 16.9297 10.9716 16.9498 10.9716 17.0379C10.9553 17.1854 11.1006 17.3768 11.1578 17.3904C11.4226 17.4241 11.5962 17.6631 11.8824 17.5023C12.0381 17.4393 12.1793 17.3286 12.2426 17.1684C12.3509 16.8561 12.302 16.5265 12.3353 16.2046C12.3481 16.1536 12.3839 16.1403 12.4429 16.1403C12.6557 16.2055 12.6649 16.3898 12.6533 16.6041C12.6429 16.7946 12.6059 17.0493 12.7701 17.1903C12.9374 17.3289 13.1126 17.4643 13.4156 17.3471C13.8672 17.1724 14.202 16.7386 14.4781 16.3818C14.6937 16.0704 14.8481 15.7417 14.9255 15.3676C14.9869 14.6669 14.8331 14.0435 14.5717 13.4681C14.3717 13.0015 14.1088 12.611 13.7073 12.3145C13.6134 12.2668 13.5018 12.2486 13.3997 12.2829C13.3997 12.2829 13.2774 12.4038 13.2232 12.4171C13.2236 12.3813 13.352 12.2523 13.3605 12.226C13.3972 12.1707 13.4241 12.1101 13.407 12.0408L13.3719 12.0053C13.3245 11.9644 13.2911 11.9802 13.2609 11.9824C13.234 11.9845 13.1948 11.9845 13.1346 11.978C12.7615 11.9391 12.6964 11.9258 12.4604 11.8782C12.3081 11.863 12.1243 11.8321 11.972 11.7857C11.8879 11.7851 11.8766 11.8794 11.9066 11.9301C11.9164 12.0291 11.984 12.0708 12.046 12.107L12.0925 12.1345C12.1372 12.1633 12.172 12.196 12.1821 12.252C12.1971 12.538 12.0488 12.7331 11.9546 12.9848C11.9546 12.9848 11.7962 13.4792 11.5547 13.3617C11.5256 13.2835 11.5825 13.077 11.5825 13.077C11.5706 12.8203 11.625 12.6045 11.7225 12.3618C11.7225 12.3327 11.7406 12.1679 11.7057 12.1327C11.5987 12.0776 11.5366 12.0702 11.4394 12.0526C11.4048 12.0476 11.3636 12.0451 11.1364 12.0207C10.6909 11.9196 10.2976 12.0022 10.3041 12.1348ZM12.1668 15.2102C12.0904 15.0553 11.891 15.2102 11.7837 15.0862C11.7072 15.0707 11.6611 15.1017 11.6305 15.1483V15.2102C11.7225 15.2102 11.8146 15.2256 11.8757 15.2878C11.9369 15.3033 12.0136 15.2102 12.0904 15.2878C12.1362 15.3187 12.1209 15.3963 12.1821 15.4272C12.2741 15.3806 12.1977 15.272 12.1668 15.2102ZM12.6878 14.4975C12.6726 14.3735 12.8872 14.4044 12.8257 14.2804C12.734 14.234 12.6726 14.3268 12.6267 14.3889C12.5808 14.4817 12.5499 14.6366 12.5808 14.7142C12.7493 14.7297 12.6267 14.5748 12.6878 14.4975ZM13.0404 14.4817C13.0404 14.4508 13.0863 14.3889 13.0251 14.3735C12.9484 14.3422 12.8566 14.3889 12.7952 14.4508C12.7034 14.5748 12.6573 14.7609 12.734 14.9313C12.7646 14.9777 12.8105 14.9313 12.8257 14.9004C12.8872 14.7918 12.7952 14.6366 12.9025 14.5438L13.0404 14.4817ZM12.3662 14.9004C12.3353 14.8537 12.3047 14.7764 12.2283 14.7918C11.9678 14.8691 11.9983 14.4817 11.7378 14.5284C11.6458 14.5593 11.4926 14.4817 11.462 14.6366C11.4926 14.7142 11.6305 14.6678 11.6919 14.7142C11.7378 14.6988 11.799 14.6833 11.8451 14.6833C11.9216 14.7451 11.8146 14.8227 11.891 14.8691C11.983 14.8227 12.0595 14.9158 12.1209 14.9622C12.213 14.9313 12.3047 14.9467 12.3509 15.0398C12.3968 15.0398 12.3815 14.9467 12.3662 14.9004Z" fill="var(--fill-0, #9A9A9A)"/>
</g>
<g id="g3023">
<path id="path3025" d="M0.613921 0.396155C0.610496 0.277296 0.610496 -0.00337063 0.973202 3.064e-05C1.1759 3.064e-05 1.35468 0.0843822 1.35468 0.346156C1.35468 0.740549 0.802948 0.700971 0.802948 0.974773C0.802948 1.10912 0.898288 1.1573 0.991976 1.1573C1.14012 1.1573 1.18269 1.06775 1.181 0.931701H1.34447C1.35468 1.18485 1.2287 1.29508 1.0039 1.29508C0.797842 1.29508 0.642877 1.17805 0.642877 0.95752C0.642877 0.583843 1.19461 0.614795 1.19461 0.339323C1.19461 0.191213 1.09924 0.137813 0.974944 0.137813C0.874438 0.137813 0.768885 0.191213 0.768885 0.359978V0.396155H0.613921Z" fill="var(--fill-0, #9A9A9A)"/>
</g>
<g id="g3027">
<path id="path3029" d="M2.22422 0.0287266V0.166478H1.73719V0.596955H2.17998V0.734799H1.73719V1.13426H2.21401V1.27201H1.58048V0.0287266H2.22422Z" fill="var(--fill-0, #9A9A9A)"/>
</g>
<g id="g3031">
<path id="path3033" d="M3.12256 0.926537C3.13785 1.16756 3.04428 1.29505 2.80067 1.29505C2.55884 1.29505 2.40559 1.19518 2.40559 0.843856V0.492504C2.40559 0.0103584 2.64063 0 2.79386 0C2.87391 0 3.14824 0 3.14121 0.392661H2.97946C2.97793 0.149872 2.83302 0.132619 2.78539 0.132619C2.66445 0.132619 2.56569 0.168796 2.56569 0.473612V0.805947C2.56569 1.01952 2.59633 1.05053 2.60143 1.06429C2.60657 1.08148 2.65763 1.16076 2.78707 1.16076C2.81942 1.16076 2.89262 1.14691 2.92503 1.10736C2.95744 1.06772 2.96264 0.997129 2.96081 0.926537H3.12256Z" fill="var(--fill-0, #9A9A9A)"/>
</g>
<g id="g3035">
<path id="path3037" d="M3.34561 0.480476C3.34561 0.136082 3.47159 0 3.73211 0C3.99263 0 4.11891 0.136082 4.11891 0.480476V1.26917H3.96205V0.473581C3.96205 0.201541 3.88041 0.132619 3.73211 0.132619C3.58412 0.132619 3.50217 0.201541 3.50217 0.473581V1.26917H3.34561V0.480476Z" fill="var(--fill-0, #9A9A9A)"/>
</g>
<g id="g3039">
<path id="path3041" fill-rule="evenodd" clip-rule="evenodd" d="M4.53 1.13426H4.76667C4.88775 1.13426 4.93178 1.03439 4.93178 0.944812C4.93178 0.836343 4.87735 0.738201 4.76514 0.738201H4.53V1.13426ZM4.71377 0.600449C4.76667 0.600449 4.88775 0.593554 4.89937 0.442043C4.91313 0.27671 4.90304 0.11481 4.94707 0.0287266H5.11066C5.08681 0.106214 5.06968 0.300797 5.06816 0.354197C5.05959 0.603912 5.00853 0.652118 4.86726 0.674504V0.677998C5.01189 0.703786 5.09201 0.815688 5.09201 0.962066C5.09201 1.1171 5.01526 1.27201 4.79724 1.27201H4.37344V0.0287266H4.53V0.600449H4.71377Z" fill="var(--fill-0, #9A9A9A)"/>
</g>
<path id="path3043" d="M5.33155 0.0287266H5.48821V1.27201H5.33155V0.0287266Z" fill="var(--fill-0, #9A9A9A)"/>
<g id="g3045">
<path id="path3047" d="M5.65565 1.27201V1.13426H5.97916V0.0287266H6.13602V1.13426H6.45952V1.27201H5.65565Z" fill="var(--fill-0, #9A9A9A)"/>
</g>
<path id="path3049" d="M6.62279 0.0287266H6.77945V1.27201H6.62279V0.0287266Z" fill="var(--fill-0, #9A9A9A)"/>
<g id="g3051">
<path id="path3053" d="M7.70934 0.0287266V0.166478H7.22224V0.596955H7.665V0.734799H7.22224V1.13426H7.69894V1.27201H7.06569V0.0287266H7.70934Z" fill="var(--fill-0, #9A9A9A)"/>
</g>
<g id="g3055">
<path id="path3057" d="M7.86941 0.396155C7.86604 0.277296 7.86604 -0.00337063 8.22869 3.064e-05C8.43141 3.064e-05 8.61029 0.0843822 8.61029 0.346156C8.61029 0.740549 8.05837 0.700971 8.05837 0.974773C8.05837 1.10912 8.15377 1.1573 8.24734 1.1573C8.39564 1.1573 8.43814 1.06775 8.43661 0.931701H8.59989C8.61029 1.18485 8.48431 1.29508 8.25926 1.29508C8.05348 1.29508 7.89845 1.17805 7.89845 0.95752C7.89845 0.583843 8.45007 0.614795 8.45007 0.339323C8.45007 0.191213 8.35467 0.137813 8.23052 0.137813C8.12992 0.137813 8.02443 0.191213 8.02443 0.359978V0.396155H7.86941Z" fill="var(--fill-0, #9A9A9A)"/>
</g>
<path id="path3059" d="M9.21948 0.0287266H9.37618V1.27201H9.21948V0.0287266Z" fill="var(--fill-0, #9A9A9A)"/>
<g id="g3061">
<path id="path3063" d="M10.3695 1.27201V0.207788H10.3662L9.88763 1.27201H9.66625V0.0287266H9.80599V1.10677H9.80935L10.2946 0.0287266H10.5093V1.27201H10.3695Z" fill="var(--fill-0, #9A9A9A)"/>
</g>
<g id="g3065">
<path id="path3067" d="M11.5683 1.27201H11.4081L11.1204 0.178506H11.117L10.836 1.27201H10.6657L11.0216 0.0287266H11.209L11.5683 1.27201Z" fill="var(--fill-0, #9A9A9A)"/>
</g>
<g id="g3069">
<path id="path3071" d="M12.3565 0.0287266V0.166478H11.8694V0.596955H12.3122V0.734799H11.8694V1.13426H12.3464V1.27201H11.7129V0.0287266H12.3565Z" fill="var(--fill-0, #9A9A9A)"/>
</g>
<g id="g3073">
<path id="path3075" d="M12.5153 0.396155C12.5119 0.277296 12.5119 -0.00337063 12.8746 3.064e-05C13.0773 3.064e-05 13.2562 0.0843822 13.2562 0.346156C13.2562 0.740549 12.7043 0.700971 12.7043 0.974773C12.7043 1.10912 12.7997 1.1573 12.8935 1.1573C13.0415 1.1573 13.084 1.06775 13.0825 0.931701H13.2458C13.2562 1.18485 13.1299 1.29508 12.9052 1.29508C12.6994 1.29508 12.5444 1.17805 12.5444 0.95752C12.5444 0.583843 13.096 0.614795 13.096 0.339323C13.096 0.191213 13.0006 0.137813 12.8764 0.137813C12.7758 0.137813 12.6703 0.191213 12.6703 0.359978V0.396155H12.5153Z" fill="var(--fill-0, #9A9A9A)"/>
</g>
<g id="g3077">
<path id="path3079" d="M13.3695 1.27201V1.13426H13.693V0.0287266H13.8499V1.13426H14.1734V1.27201H13.3695Z" fill="var(--fill-0, #9A9A9A)"/>
</g>
<g id="g3081">
<path id="path3083" fill-rule="evenodd" clip-rule="evenodd" d="M14.7025 0C14.963 0 15.089 0.136113 15.089 0.480476V0.888629C15.089 1.13661 14.963 1.29505 14.7025 1.29505C14.442 1.29505 14.316 1.13661 14.316 0.888629V0.480476C14.316 0.136113 14.442 0 14.7025 0ZM14.7025 0.132619C14.5542 0.132619 14.4759 0.201541 14.4759 0.473581V0.893762C14.4759 1.15387 14.6533 1.16243 14.7025 1.16243C14.7517 1.16243 14.9291 1.15387 14.9291 0.893762V0.473581C14.9291 0.201541 14.8505 0.132619 14.7025 0.132619Z" fill="var(--fill-0, #9A9A9A)"/>
</g>
<g id="g3085">
<path id="path3087" fill-rule="evenodd" clip-rule="evenodd" d="M15.5017 1.13426H15.7384C15.8595 1.13426 15.9038 1.03439 15.9038 0.944812C15.9038 0.836343 15.8491 0.738201 15.7368 0.738201H15.5017V1.13426ZM15.6858 0.600449C15.7384 0.600449 15.8595 0.593554 15.8714 0.442043C15.8848 0.27671 15.8747 0.11481 15.9191 0.0287266H16.0824C16.0585 0.106214 16.0417 0.300797 16.0399 0.354197C16.0313 0.603912 15.9802 0.652118 15.839 0.674504V0.677998C15.9836 0.703786 16.0637 0.815688 16.0637 0.962066C16.0637 1.1171 15.987 1.27201 15.7692 1.27201H15.3451V0.0287266H15.5017V0.600449H15.6858Z" fill="var(--fill-0, #9A9A9A)"/>
</g>
<g id="g3089">
<path id="path3091" fill-rule="evenodd" clip-rule="evenodd" d="M16.8178 1.13426H17.034C17.0679 1.13426 17.2076 1.11534 17.2076 0.92592C17.2076 0.731336 17.0544 0.714083 16.9899 0.714083H16.8178V1.13426ZM16.8178 0.0287266V0.5763H17.0239C17.1498 0.5763 17.3679 0.634864 17.3679 0.917293C17.3679 1.21008 17.1905 1.27201 17.0254 1.27201H16.6609V0.0287266H16.8178Z" fill="var(--fill-0, #9A9A9A)"/>
</g>
<g id="g3093">
<path id="path3095" fill-rule="evenodd" clip-rule="evenodd" d="M17.7317 1.13426H17.9683C18.0894 1.13426 18.1335 1.03439 18.1335 0.944812C18.1335 0.836343 18.079 0.738201 17.9668 0.738201H17.7317V1.13426ZM17.9158 0.600449C17.9683 0.600449 18.0894 0.593554 18.1014 0.442043C18.1148 0.27671 18.1047 0.11481 18.1491 0.0287266H18.3123C18.2885 0.106214 18.2717 0.300797 18.2698 0.354197C18.2613 0.603912 18.2102 0.652118 18.0689 0.674504V0.677998C18.2136 0.703786 18.2937 0.815688 18.2937 0.962066C18.2937 1.1171 18.2169 1.27201 17.9989 1.27201H17.5751V0.0287266H17.7317V0.600449H17.9158Z" fill="var(--fill-0, #9A9A9A)"/>
</g>
<g id="g3097">
<path id="path3099" fill-rule="evenodd" clip-rule="evenodd" d="M18.8887 0C19.1492 0 19.2752 0.136113 19.2752 0.480476V0.888629C19.2752 1.13661 19.1492 1.29505 18.8887 1.29505C18.6282 1.29505 18.5022 1.13661 18.5022 0.888629V0.480476C18.5022 0.136113 18.6282 0 18.8887 0ZM18.8887 0.132619C18.7407 0.132619 18.6621 0.201541 18.6621 0.473581V0.893762C18.6621 1.15387 18.8394 1.16243 18.8887 1.16243C18.9379 1.16243 19.1152 1.15387 19.1152 0.893762V0.473581C19.1152 0.201541 19.0367 0.132619 18.8887 0.132619Z" fill="var(--fill-0, #9A9A9A)"/>
</g>
<g id="g3101">
<path id="path3103" d="M19.4216 1.27201V1.13426H19.7451V0.0287266H19.902V1.13426H20.2255V1.27201H19.4216Z" fill="var(--fill-0, #9A9A9A)"/>
</g>
<g id="g3105">
<path id="path3107" d="M21.0143 0.0287266V0.166478H20.5272V0.596955H20.97V0.734799H20.5272V1.13426H21.0039V1.27201H20.3707V0.0287266H21.0143Z" fill="var(--fill-0, #9A9A9A)"/>
</g>
<g id="g3109">
<path id="path3111" d="M21.9167 0.926537C21.932 1.16756 21.8384 1.29505 21.5947 1.29505C21.3528 1.29505 21.1996 1.19518 21.1996 0.843856V0.492504C21.1996 0.0103584 21.4348 0 21.588 0C21.6681 0 21.9421 0 21.9353 0.392661H21.7736C21.7721 0.149872 21.6271 0.132619 21.5794 0.132619C21.4586 0.132619 21.3599 0.168796 21.3599 0.473612V0.805947C21.3599 1.01952 21.3904 1.05053 21.3956 1.06429C21.4005 1.08148 21.4516 1.16076 21.5812 1.16076C21.6137 1.16076 21.6867 1.14691 21.7192 1.10736C21.7516 1.06772 21.7565 0.997129 21.7549 0.926537H21.9167Z" fill="var(--fill-0, #9A9A9A)"/>
</g>
<g id="g3113">
<path id="path3115" d="M22.0273 1.27201V1.13426H22.3508V0.0287266H22.5077V1.13426H22.8312V1.27201H22.0273Z" fill="var(--fill-0, #9A9A9A)"/>
</g>
<path id="path3117" d="M23.0009 0.0287266H23.1577V1.27201H23.0009V0.0287266Z" fill="var(--fill-0, #9A9A9A)"/>
<g id="g3119">
<path id="path3121" fill-rule="evenodd" clip-rule="evenodd" d="M23.8239 0C24.0844 0 24.2104 0.136113 24.2104 0.480476V0.888629C24.2104 1.13661 24.0844 1.29505 23.8239 1.29505C23.5634 1.29505 23.4374 1.13661 23.4374 0.888629V0.480476C23.4374 0.136113 23.5634 0 23.8239 0ZM23.8239 0.132619C23.6759 0.132619 23.5973 0.201541 23.5973 0.473581V0.893762C23.5973 1.15387 23.7746 1.16243 23.8239 1.16243C23.8731 1.16243 24.0504 1.15387 24.0504 0.893762V0.473581C24.0504 0.201541 23.9722 0.132619 23.8239 0.132619Z" fill="var(--fill-0, #9A9A9A)"/>
</g>
<g id="g3123">
<path id="path3125" d="M25.1788 1.27201V0.207788H25.1754L24.6969 1.27201H24.4755V0.0287266H24.6153V1.10677H24.6186L25.1039 0.0287266H25.3185V1.27201H25.1788Z" fill="var(--fill-0, #9A9A9A)"/>
</g>
<g id="g3127">
<path id="path3129" d="M26.6543 0.926537C26.6695 1.16756 26.576 1.29505 26.3323 1.29505C26.0904 1.29505 25.9372 1.19518 25.9372 0.843856V0.492504C25.9372 0.0103584 26.1724 0 26.3256 0C26.4057 0 26.6796 0 26.6729 0.392661H26.5112C26.5096 0.149872 26.3647 0.132619 26.317 0.132619C26.1962 0.132619 26.0974 0.168796 26.0974 0.473612V0.805947C26.0974 1.01952 26.128 1.05053 26.1332 1.06429C26.1381 1.08148 26.1892 1.16076 26.3188 1.16076C26.3512 1.16076 26.4243 1.14691 26.4567 1.10736C26.4891 1.06772 26.494 0.997129 26.4925 0.926537H26.6543Z" fill="var(--fill-0, #9A9A9A)"/>
</g>
<g id="g3131">
<path id="path3133" fill-rule="evenodd" clip-rule="evenodd" d="M27.2676 0C27.5281 0 27.6541 0.136113 27.6541 0.480476V0.888629C27.6541 1.13661 27.5281 1.29505 27.2676 1.29505C27.0071 1.29505 26.8811 1.13661 26.8811 0.888629V0.480476C26.8811 0.136113 27.0071 0 27.2676 0ZM27.2676 0.132619C27.1193 0.132619 27.041 0.201541 27.041 0.473581V0.893762C27.041 1.15387 27.2184 1.16243 27.2676 1.16243C27.3168 1.16243 27.4942 1.15387 27.4942 0.893762V0.473581C27.4942 0.201541 27.4156 0.132619 27.2676 0.132619Z" fill="var(--fill-0, #9A9A9A)"/>
</g>
<g id="g3135">
<path id="path3137" fill-rule="evenodd" clip-rule="evenodd" d="M28.0632 1.13426H28.2999C28.421 1.13426 28.465 1.03439 28.465 0.944812C28.465 0.836343 28.4106 0.738201 28.2984 0.738201H28.0632V1.13426ZM28.247 0.600449C28.2999 0.600449 28.421 0.593554 28.4329 0.442043C28.4464 0.27671 28.4363 0.11481 28.4806 0.0287266H28.6439C28.62 0.106214 28.6032 0.300797 28.6014 0.354197C28.5928 0.603912 28.5418 0.652118 28.4005 0.674504V0.677998C28.5451 0.703786 28.6252 0.815688 28.6252 0.962066C28.6252 1.1171 28.5485 1.27201 28.3305 1.27201H27.9064V0.0287266H28.0632V0.600449H28.247Z" fill="var(--fill-0, #9A9A9A)"/>
</g>
<g id="g3139">
<path id="path3141" fill-rule="evenodd" clip-rule="evenodd" d="M29.0184 1.13426H29.2346C29.2689 1.13426 29.4083 1.11534 29.4083 0.92592C29.4083 0.731336 29.2551 0.714083 29.1906 0.714083H29.0184V1.13426ZM29.0184 0.0287266V0.5763H29.2245C29.3505 0.5763 29.5685 0.634864 29.5685 0.917293C29.5685 1.21008 29.3915 1.27201 29.2261 1.27201H28.8619V0.0287266H29.0184Z" fill="var(--fill-0, #9A9A9A)"/>
</g>
<g id="g3143">
<path id="path3145" fill-rule="evenodd" clip-rule="evenodd" d="M30.1574 0C30.4179 0 30.5439 0.136113 30.5439 0.480476V0.888629C30.5439 1.13661 30.4179 1.29505 30.1574 1.29505C29.8969 1.29505 29.7709 1.13661 29.7709 0.888629V0.480476C29.7709 0.136113 29.8969 0 30.1574 0ZM30.1574 0.132619C30.0091 0.132619 29.9308 0.201541 29.9308 0.473581V0.893762C29.9308 1.15387 30.1079 1.16243 30.1574 1.16243C30.2066 1.16243 30.384 1.15387 30.384 0.893762V0.473581C30.384 0.201541 30.3054 0.132619 30.1574 0.132619Z" fill="var(--fill-0, #9A9A9A)"/>
</g>
<g id="g3147">
<path id="path3149" fill-rule="evenodd" clip-rule="evenodd" d="M30.9527 1.13426H31.1894C31.3105 1.13426 31.3545 1.03439 31.3545 0.944812C31.3545 0.836343 31.3001 0.738201 31.1879 0.738201H30.9527V1.13426ZM31.1368 0.600449C31.1894 0.600449 31.3105 0.593554 31.3224 0.442043C31.3359 0.27671 31.3258 0.11481 31.3701 0.0287266H31.5334C31.5095 0.106214 31.4927 0.300797 31.4909 0.354197C31.4823 0.603912 31.4313 0.652118 31.29 0.674504V0.677998C31.4346 0.703786 31.5147 0.815688 31.5147 0.962066C31.5147 1.1171 31.438 1.27201 31.22 1.27201H30.7962V0.0287266H30.9527V0.600449H31.1368Z" fill="var(--fill-0, #9A9A9A)"/>
</g>
<g id="g3151">
<path id="path3153" fill-rule="evenodd" clip-rule="evenodd" d="M31.6226 0.0287266H31.781L31.873 0.324915H32.3482L32.4365 0.0287266H32.612L32.2118 1.27201H32.0124L31.6226 0.0287266ZM32.3054 0.462667H31.9121L32.1045 1.1257H32.1078L32.3054 0.462667Z" fill="var(--fill-0, #9A9A9A)"/>
</g>
<g id="g3155">
<path id="path3157" d="M32.5213 1.27201V1.13426H32.8448V0.0287266H33.0016V1.13426H33.3251V1.27201H32.5213Z" fill="var(--fill-0, #9A9A9A)"/>
</g>
<path id="path3159" d="M33.491 0.0287266H33.6477V1.27201H33.491V0.0287266Z" fill="var(--fill-0, #9A9A9A)"/>
<g id="g3161">
<path id="path3163" fill-rule="evenodd" clip-rule="evenodd" d="M34.3126 0C34.5732 0 34.6991 0.136113 34.6991 0.480476V0.888629C34.6991 1.13661 34.5732 1.29505 34.3126 1.29505C34.0521 1.29505 33.9262 1.13661 33.9262 0.888629V0.480476C33.9262 0.136113 34.0521 0 34.3126 0ZM34.3126 0.132619C34.1647 0.132619 34.0861 0.201541 34.0861 0.473581V0.893762C34.0861 1.15387 34.2634 1.16243 34.3126 1.16243C34.3619 1.16243 34.5392 1.15387 34.5392 0.893762V0.473581C34.5392 0.201541 34.4606 0.132619 34.3126 0.132619Z" fill="var(--fill-0, #9A9A9A)"/>
</g>
<g id="g3165">
<path id="path3167" d="M35.6689 1.27201V0.207788H35.6655L35.187 1.27201H34.9656V0.0287266H35.105V1.10677H35.1084L35.594 0.0287266H35.8086V1.27201H35.6689Z" fill="var(--fill-0, #9A9A9A)"/>
</g>
<g id="g3169">
<path id="path3171" d="M8.40917 16.7699V12.0829C8.32998 12.0032 8.32998 12.0631 8.31346 12.1698C8.20216 12.8844 8.13917 14.0918 7.06347 15.0702C4.66623 17.2501 1.73633 16.3011 2.32678 13.6262C3.07744 10.2255 8.36055 12.0916 9.05251 7.66623C9.78392 2.98577 5.55419 1.51425 2.19132 3.2789C2.19132 3.2789 1.32324 3.82897 0.98016 3.69014C0.831556 3.63016 0.733709 3.32249 0.710776 2.9867C0.699463 2.50062 0.566147 2.64626 0.573485 2.68831C0.572262 2.89022 0.573485 7.69344 0.573485 7.69344C0.577154 7.78465 0.650845 7.75899 0.650845 7.729C0.736155 2.17967 6.69166 1.47127 6.57577 4.69568C6.43848 8.50789 0.598558 7.51935 0.0619303 11.4299C-0.598229 16.2365 4.17547 17.5865 6.95492 15.5086C7.50501 15.0977 8.01625 15.7291 8.10401 15.859C8.29145 16.1354 8.2306 16.4094 8.30429 16.7721C8.33364 16.9158 8.40917 16.8698 8.40917 16.7699Z" fill="var(--fill-0, #9A9A9A)"/>
</g>
<g id="g3173">
<path id="path3175" d="M35.7295 12.0439C35.7588 11.6967 35.5738 11.7857 35.5738 11.7857C36.0242 15.3781 28.8973 19.596 28.4377 10.3927C28.0314 2.2566 33.6135 0.652123 35.8001 6.20918C35.8218 6.28648 35.9603 6.70267 35.9664 6.73823C35.9921 6.88511 36.0135 6.71628 35.9921 6.55178C34.7556 -0.565841 22.9021 1.80175 25.6204 12.1926C26.2658 14.6598 29.4303 17.0354 31.9669 16.3252C33.4784 15.9022 33.2897 15.6786 34.2037 15.1904C35.2292 14.6425 35.4934 15.9142 35.62 16.5602C35.7353 16.6248 35.7285 16.4037 35.7285 16.4037L35.7295 12.0439Z" fill="var(--fill-0, #9A9A9A)"/>
</g>
<g id="g3177">
<path id="path3179" d="M21.8276 14.7794C21.2839 15.6245 20.4033 16.1257 19.3817 16.0472C19.2417 16.0527 19.2493 15.9702 19.2493 15.9702V9.36335C19.2502 9.22142 19.3817 9.22235 19.3817 9.22235C20.5271 9.12835 21.5138 9.83582 22.0596 10.8346C22.71 12.0244 22.4972 13.7383 21.8276 14.7794ZM25.099 13.6375C25.3825 11.9749 25.0421 10.6444 24.2113 9.89549C22.7647 8.71494 21.1757 9.07208 19.449 9.00312C19.2306 9.01642 19.2493 8.74865 19.2493 8.74865V2.68325L15.7357 2.68202L15.7338 15.9692C15.7549 16.229 15.2565 16.1569 14.9422 16.1724C14.7893 16.1928 14.8648 16.3069 14.9361 16.3189C16.2992 16.289 20.3999 16.4448 22.6935 15.9692C23.8805 15.7231 24.8712 14.9764 25.099 13.6375Z" fill="var(--fill-0, #9A9A9A)"/>
</g>
<g id="g3181">
<path id="path3183" d="M13.9971 11.2929V2.68459C13.499 2.67964 10.3991 2.68335 10.3991 2.68335L10.4015 10.9441C10.4015 10.9441 10.4177 11.2508 10.2181 11.2589C9.80282 11.2756 9.24326 11.3213 9.24326 11.3213C9.17201 11.3257 9.09863 11.4206 9.24326 11.4308C9.66675 11.4308 13.8057 11.4308 13.8057 11.4308C14.0093 11.437 13.9971 11.2929 13.9971 11.2929Z" fill="var(--fill-0, #9A9A9A)"/>
</g>
</g>
</svg>
